%TF.GenerationSoftware,KiCad,Pcbnew,10.0.5*%
%TF.CreationDate,2026-10-07T22:37:08+05:30*%
%TF.ProjectId,Amplitude Modulator,416d706c-6974-4756-9465-204d6f64756c,rev?*%
%TF.SameCoordinates,Original*%
%TF.FileFunction,Legend,Top*%
%TF.FilePolarity,Positive*%
%FSLAX46Y46*%
G04 Gerber Fmt 4.6, Leading zero omitted, Abs format (unit mm)*
G04 Created by KiCad (PCBNEW 10.0.5) date 2026-10-07 22:37:08*
%MOMM*%
%LPD*%
G01*
G04 APERTURE LIST*
%ADD10C,0.150000*%
%ADD11C,0.120000*%
G04 APERTURE END LIST*
D10*
X195483333Y-97509580D02*
X195435714Y-97557200D01*
X195435714Y-97557200D02*
X195292857Y-97604819D01*
X195292857Y-97604819D02*
X195197619Y-97604819D01*
X195197619Y-97604819D02*
X195054762Y-97557200D01*
X195054762Y-97557200D02*
X194959524Y-97461961D01*
X194959524Y-97461961D02*
X194911905Y-97366723D01*
X194911905Y-97366723D02*
X194864286Y-97176247D01*
X194864286Y-97176247D02*
X194864286Y-97033390D01*
X194864286Y-97033390D02*
X194911905Y-96842914D01*
X194911905Y-96842914D02*
X194959524Y-96747676D01*
X194959524Y-96747676D02*
X195054762Y-96652438D01*
X195054762Y-96652438D02*
X195197619Y-96604819D01*
X195197619Y-96604819D02*
X195292857Y-96604819D01*
X195292857Y-96604819D02*
X195435714Y-96652438D01*
X195435714Y-96652438D02*
X195483333Y-96700057D01*
X195864286Y-96700057D02*
X195911905Y-96652438D01*
X195911905Y-96652438D02*
X196007143Y-96604819D01*
X196007143Y-96604819D02*
X196245238Y-96604819D01*
X196245238Y-96604819D02*
X196340476Y-96652438D01*
X196340476Y-96652438D02*
X196388095Y-96700057D01*
X196388095Y-96700057D02*
X196435714Y-96795295D01*
X196435714Y-96795295D02*
X196435714Y-96890533D01*
X196435714Y-96890533D02*
X196388095Y-97033390D01*
X196388095Y-97033390D02*
X195816667Y-97604819D01*
X195816667Y-97604819D02*
X196435714Y-97604819D01*
X175233333Y-101334819D02*
X174900000Y-100858628D01*
X174661905Y-101334819D02*
X174661905Y-100334819D01*
X174661905Y-100334819D02*
X175042857Y-100334819D01*
X175042857Y-100334819D02*
X175138095Y-100382438D01*
X175138095Y-100382438D02*
X175185714Y-100430057D01*
X175185714Y-100430057D02*
X175233333Y-100525295D01*
X175233333Y-100525295D02*
X175233333Y-100668152D01*
X175233333Y-100668152D02*
X175185714Y-100763390D01*
X175185714Y-100763390D02*
X175138095Y-100811009D01*
X175138095Y-100811009D02*
X175042857Y-100858628D01*
X175042857Y-100858628D02*
X174661905Y-100858628D01*
X175566667Y-100334819D02*
X176185714Y-100334819D01*
X176185714Y-100334819D02*
X175852381Y-100715771D01*
X175852381Y-100715771D02*
X175995238Y-100715771D01*
X175995238Y-100715771D02*
X176090476Y-100763390D01*
X176090476Y-100763390D02*
X176138095Y-100811009D01*
X176138095Y-100811009D02*
X176185714Y-100906247D01*
X176185714Y-100906247D02*
X176185714Y-101144342D01*
X176185714Y-101144342D02*
X176138095Y-101239580D01*
X176138095Y-101239580D02*
X176090476Y-101287200D01*
X176090476Y-101287200D02*
X175995238Y-101334819D01*
X175995238Y-101334819D02*
X175709524Y-101334819D01*
X175709524Y-101334819D02*
X175614286Y-101287200D01*
X175614286Y-101287200D02*
X175566667Y-101239580D01*
X176433333Y-92874819D02*
X176100000Y-92398628D01*
X175861905Y-92874819D02*
X175861905Y-91874819D01*
X175861905Y-91874819D02*
X176242857Y-91874819D01*
X176242857Y-91874819D02*
X176338095Y-91922438D01*
X176338095Y-91922438D02*
X176385714Y-91970057D01*
X176385714Y-91970057D02*
X176433333Y-92065295D01*
X176433333Y-92065295D02*
X176433333Y-92208152D01*
X176433333Y-92208152D02*
X176385714Y-92303390D01*
X176385714Y-92303390D02*
X176338095Y-92351009D01*
X176338095Y-92351009D02*
X176242857Y-92398628D01*
X176242857Y-92398628D02*
X175861905Y-92398628D01*
X177290476Y-92208152D02*
X177290476Y-92874819D01*
X177052381Y-91827200D02*
X176814286Y-92541485D01*
X176814286Y-92541485D02*
X177433333Y-92541485D01*
X148633333Y-89734819D02*
X148300000Y-89258628D01*
X148061905Y-89734819D02*
X148061905Y-88734819D01*
X148061905Y-88734819D02*
X148442857Y-88734819D01*
X148442857Y-88734819D02*
X148538095Y-88782438D01*
X148538095Y-88782438D02*
X148585714Y-88830057D01*
X148585714Y-88830057D02*
X148633333Y-88925295D01*
X148633333Y-88925295D02*
X148633333Y-89068152D01*
X148633333Y-89068152D02*
X148585714Y-89163390D01*
X148585714Y-89163390D02*
X148538095Y-89211009D01*
X148538095Y-89211009D02*
X148442857Y-89258628D01*
X148442857Y-89258628D02*
X148061905Y-89258628D01*
X149014286Y-88830057D02*
X149061905Y-88782438D01*
X149061905Y-88782438D02*
X149157143Y-88734819D01*
X149157143Y-88734819D02*
X149395238Y-88734819D01*
X149395238Y-88734819D02*
X149490476Y-88782438D01*
X149490476Y-88782438D02*
X149538095Y-88830057D01*
X149538095Y-88830057D02*
X149585714Y-88925295D01*
X149585714Y-88925295D02*
X149585714Y-89020533D01*
X149585714Y-89020533D02*
X149538095Y-89163390D01*
X149538095Y-89163390D02*
X148966667Y-89734819D01*
X148966667Y-89734819D02*
X149585714Y-89734819D01*
X175133333Y-114274819D02*
X174800000Y-113798628D01*
X174561905Y-114274819D02*
X174561905Y-113274819D01*
X174561905Y-113274819D02*
X174942857Y-113274819D01*
X174942857Y-113274819D02*
X175038095Y-113322438D01*
X175038095Y-113322438D02*
X175085714Y-113370057D01*
X175085714Y-113370057D02*
X175133333Y-113465295D01*
X175133333Y-113465295D02*
X175133333Y-113608152D01*
X175133333Y-113608152D02*
X175085714Y-113703390D01*
X175085714Y-113703390D02*
X175038095Y-113751009D01*
X175038095Y-113751009D02*
X174942857Y-113798628D01*
X174942857Y-113798628D02*
X174561905Y-113798628D01*
X176085714Y-114274819D02*
X175514286Y-114274819D01*
X175800000Y-114274819D02*
X175800000Y-113274819D01*
X175800000Y-113274819D02*
X175704762Y-113417676D01*
X175704762Y-113417676D02*
X175609524Y-113512914D01*
X175609524Y-113512914D02*
X175514286Y-113560533D01*
X167338096Y-97617199D02*
X167290477Y-97712437D01*
X167290477Y-97712437D02*
X167195239Y-97807675D01*
X167195239Y-97807675D02*
X167052381Y-97950532D01*
X167052381Y-97950532D02*
X167004762Y-98045770D01*
X167004762Y-98045770D02*
X167004762Y-98141008D01*
X167242858Y-98093389D02*
X167195239Y-98188627D01*
X167195239Y-98188627D02*
X167100000Y-98283865D01*
X167100000Y-98283865D02*
X166909524Y-98331484D01*
X166909524Y-98331484D02*
X166576191Y-98331484D01*
X166576191Y-98331484D02*
X166385715Y-98283865D01*
X166385715Y-98283865D02*
X166290477Y-98188627D01*
X166290477Y-98188627D02*
X166242858Y-98093389D01*
X166242858Y-98093389D02*
X166242858Y-97902913D01*
X166242858Y-97902913D02*
X166290477Y-97807675D01*
X166290477Y-97807675D02*
X166385715Y-97712437D01*
X166385715Y-97712437D02*
X166576191Y-97664818D01*
X166576191Y-97664818D02*
X166909524Y-97664818D01*
X166909524Y-97664818D02*
X167100000Y-97712437D01*
X167100000Y-97712437D02*
X167195239Y-97807675D01*
X167195239Y-97807675D02*
X167242858Y-97902913D01*
X167242858Y-97902913D02*
X167242858Y-98093389D01*
X167242858Y-96712437D02*
X167242858Y-97283865D01*
X167242858Y-96998151D02*
X166242858Y-96998151D01*
X166242858Y-96998151D02*
X166385715Y-97093389D01*
X166385715Y-97093389D02*
X166480953Y-97188627D01*
X166480953Y-97188627D02*
X166528572Y-97283865D01*
X125504819Y-110266666D02*
X125504819Y-110742856D01*
X125504819Y-110742856D02*
X124504819Y-110742856D01*
X125504819Y-109409523D02*
X125504819Y-109980951D01*
X125504819Y-109695237D02*
X124504819Y-109695237D01*
X124504819Y-109695237D02*
X124647676Y-109790475D01*
X124647676Y-109790475D02*
X124742914Y-109885713D01*
X124742914Y-109885713D02*
X124790533Y-109980951D01*
X204407319Y-99238333D02*
X205121604Y-99238333D01*
X205121604Y-99238333D02*
X205264461Y-99285952D01*
X205264461Y-99285952D02*
X205359700Y-99381190D01*
X205359700Y-99381190D02*
X205407319Y-99524047D01*
X205407319Y-99524047D02*
X205407319Y-99619285D01*
X204502557Y-98809761D02*
X204454938Y-98762142D01*
X204454938Y-98762142D02*
X204407319Y-98666904D01*
X204407319Y-98666904D02*
X204407319Y-98428809D01*
X204407319Y-98428809D02*
X204454938Y-98333571D01*
X204454938Y-98333571D02*
X204502557Y-98285952D01*
X204502557Y-98285952D02*
X204597795Y-98238333D01*
X204597795Y-98238333D02*
X204693033Y-98238333D01*
X204693033Y-98238333D02*
X204835890Y-98285952D01*
X204835890Y-98285952D02*
X205407319Y-98857380D01*
X205407319Y-98857380D02*
X205407319Y-98238333D01*
X111402319Y-99328333D02*
X112116604Y-99328333D01*
X112116604Y-99328333D02*
X112259461Y-99375952D01*
X112259461Y-99375952D02*
X112354700Y-99471190D01*
X112354700Y-99471190D02*
X112402319Y-99614047D01*
X112402319Y-99614047D02*
X112402319Y-99709285D01*
X112402319Y-98328333D02*
X112402319Y-98899761D01*
X112402319Y-98614047D02*
X111402319Y-98614047D01*
X111402319Y-98614047D02*
X111545176Y-98709285D01*
X111545176Y-98709285D02*
X111640414Y-98804523D01*
X111640414Y-98804523D02*
X111688033Y-98899761D01*
X159283333Y-102459580D02*
X159235714Y-102507200D01*
X159235714Y-102507200D02*
X159092857Y-102554819D01*
X159092857Y-102554819D02*
X158997619Y-102554819D01*
X158997619Y-102554819D02*
X158854762Y-102507200D01*
X158854762Y-102507200D02*
X158759524Y-102411961D01*
X158759524Y-102411961D02*
X158711905Y-102316723D01*
X158711905Y-102316723D02*
X158664286Y-102126247D01*
X158664286Y-102126247D02*
X158664286Y-101983390D01*
X158664286Y-101983390D02*
X158711905Y-101792914D01*
X158711905Y-101792914D02*
X158759524Y-101697676D01*
X158759524Y-101697676D02*
X158854762Y-101602438D01*
X158854762Y-101602438D02*
X158997619Y-101554819D01*
X158997619Y-101554819D02*
X159092857Y-101554819D01*
X159092857Y-101554819D02*
X159235714Y-101602438D01*
X159235714Y-101602438D02*
X159283333Y-101650057D01*
X160235714Y-102554819D02*
X159664286Y-102554819D01*
X159950000Y-102554819D02*
X159950000Y-101554819D01*
X159950000Y-101554819D02*
X159854762Y-101697676D01*
X159854762Y-101697676D02*
X159759524Y-101792914D01*
X159759524Y-101792914D02*
X159664286Y-101840533D01*
X125814285Y-76731009D02*
X125957142Y-76778628D01*
X125957142Y-76778628D02*
X126004761Y-76826247D01*
X126004761Y-76826247D02*
X126052380Y-76921485D01*
X126052380Y-76921485D02*
X126052380Y-77064342D01*
X126052380Y-77064342D02*
X126004761Y-77159580D01*
X126004761Y-77159580D02*
X125957142Y-77207200D01*
X125957142Y-77207200D02*
X125861904Y-77254819D01*
X125861904Y-77254819D02*
X125480952Y-77254819D01*
X125480952Y-77254819D02*
X125480952Y-76254819D01*
X125480952Y-76254819D02*
X125814285Y-76254819D01*
X125814285Y-76254819D02*
X125909523Y-76302438D01*
X125909523Y-76302438D02*
X125957142Y-76350057D01*
X125957142Y-76350057D02*
X126004761Y-76445295D01*
X126004761Y-76445295D02*
X126004761Y-76540533D01*
X126004761Y-76540533D02*
X125957142Y-76635771D01*
X125957142Y-76635771D02*
X125909523Y-76683390D01*
X125909523Y-76683390D02*
X125814285Y-76731009D01*
X125814285Y-76731009D02*
X125480952Y-76731009D01*
X126338095Y-76254819D02*
X126909523Y-76254819D01*
X126623809Y-77254819D02*
X126623809Y-76254819D01*
X127766666Y-77254819D02*
X127195238Y-77254819D01*
X127480952Y-77254819D02*
X127480952Y-76254819D01*
X127480952Y-76254819D02*
X127385714Y-76397676D01*
X127385714Y-76397676D02*
X127290476Y-76492914D01*
X127290476Y-76492914D02*
X127195238Y-76540533D01*
%TO.C,C2*%
D11*
X190170354Y-100525000D02*
X191170354Y-100525000D01*
X190670354Y-100025000D02*
X190670354Y-101025000D01*
X195650000Y-98320000D02*
X195650000Y-108480000D01*
X195690000Y-98320000D02*
X195690000Y-108480000D01*
X195730000Y-98321000D02*
X195730000Y-108479000D01*
X195770000Y-98321000D02*
X195770000Y-108479000D01*
X195810000Y-98323000D02*
X195810000Y-108477000D01*
X195850000Y-98324000D02*
X195850000Y-108476000D01*
X195890000Y-98326000D02*
X195890000Y-108474000D01*
X195930000Y-98328000D02*
X195930000Y-108472000D01*
X195970000Y-98330000D02*
X195970000Y-108470000D01*
X196010000Y-98333000D02*
X196010000Y-108467000D01*
X196050000Y-98336000D02*
X196050000Y-108464000D01*
X196090000Y-98339000D02*
X196090000Y-108461000D01*
X196130000Y-98343000D02*
X196130000Y-108457000D01*
X196170000Y-98346000D02*
X196170000Y-108454000D01*
X196210000Y-98351000D02*
X196210000Y-108449000D01*
X196250000Y-98355000D02*
X196250000Y-108445000D01*
X196290000Y-98360000D02*
X196290000Y-108440000D01*
X196330000Y-98365000D02*
X196330000Y-108435000D01*
X196370000Y-98371000D02*
X196370000Y-108429000D01*
X196410000Y-98377000D02*
X196410000Y-108423000D01*
X196450000Y-98383000D02*
X196450000Y-108417000D01*
X196490000Y-98389000D02*
X196490000Y-108411000D01*
X196530000Y-98396000D02*
X196530000Y-108404000D01*
X196570000Y-98403000D02*
X196570000Y-108397000D01*
X196610000Y-98411000D02*
X196610000Y-108389000D01*
X196650000Y-98419000D02*
X196650000Y-108381000D01*
X196690000Y-98427000D02*
X196690000Y-108373000D01*
X196730000Y-98435000D02*
X196730000Y-108365000D01*
X196770000Y-98444000D02*
X196770000Y-108356000D01*
X196810000Y-98453000D02*
X196810000Y-108347000D01*
X196850000Y-98463000D02*
X196850000Y-108337000D01*
X196890000Y-98472000D02*
X196890000Y-108328000D01*
X196930000Y-98483000D02*
X196930000Y-108317000D01*
X196970000Y-98493000D02*
X196970000Y-108307000D01*
X197010000Y-98504000D02*
X197010000Y-108296000D01*
X197050000Y-98515000D02*
X197050000Y-108285000D01*
X197090000Y-98527000D02*
X197090000Y-108273000D01*
X197130000Y-98539000D02*
X197130000Y-108261000D01*
X197170000Y-98551000D02*
X197170000Y-108249000D01*
X197210000Y-98563000D02*
X197210000Y-108237000D01*
X197250000Y-98576000D02*
X197250000Y-108224000D01*
X197290000Y-98590000D02*
X197290000Y-108210000D01*
X197330000Y-98603000D02*
X197330000Y-108197000D01*
X197370000Y-98618000D02*
X197370000Y-108182000D01*
X197410000Y-98632000D02*
X197410000Y-108168000D01*
X197450000Y-98647000D02*
X197450000Y-108153000D01*
X197490000Y-98662000D02*
X197490000Y-108138000D01*
X197530000Y-98678000D02*
X197530000Y-108122000D01*
X197570000Y-98694000D02*
X197570000Y-108106000D01*
X197610000Y-98710000D02*
X197610000Y-108090000D01*
X197650000Y-98727000D02*
X197650000Y-108073000D01*
X197690000Y-98744000D02*
X197690000Y-108056000D01*
X197730000Y-98762000D02*
X197730000Y-108038000D01*
X197770000Y-98780000D02*
X197770000Y-108020000D01*
X197810000Y-98798000D02*
X197810000Y-108002000D01*
X197850000Y-98817000D02*
X197850000Y-107983000D01*
X197890000Y-98836000D02*
X197890000Y-107964000D01*
X197930000Y-98856000D02*
X197930000Y-107944000D01*
X197970000Y-98876000D02*
X197970000Y-107924000D01*
X198010000Y-98896000D02*
X198010000Y-107904000D01*
X198050000Y-98917000D02*
X198050000Y-107883000D01*
X198090000Y-98939000D02*
X198090000Y-107861000D01*
X198130000Y-98961000D02*
X198130000Y-107839000D01*
X198170000Y-98983000D02*
X198170000Y-102160000D01*
X198170000Y-104640000D02*
X198170000Y-107817000D01*
X198210000Y-99006000D02*
X198210000Y-102160000D01*
X198210000Y-104640000D02*
X198210000Y-107794000D01*
X198250000Y-99029000D02*
X198250000Y-102160000D01*
X198250000Y-104640000D02*
X198250000Y-107771000D01*
X198290000Y-99053000D02*
X198290000Y-102160000D01*
X198290000Y-104640000D02*
X198290000Y-107747000D01*
X198330000Y-99077000D02*
X198330000Y-102160000D01*
X198330000Y-104640000D02*
X198330000Y-107723000D01*
X198370000Y-99102000D02*
X198370000Y-102160000D01*
X198370000Y-104640000D02*
X198370000Y-107698000D01*
X198410000Y-99128000D02*
X198410000Y-102160000D01*
X198410000Y-104640000D02*
X198410000Y-107672000D01*
X198450000Y-99153000D02*
X198450000Y-102160000D01*
X198450000Y-104640000D02*
X198450000Y-107647000D01*
X198490000Y-99180000D02*
X198490000Y-102160000D01*
X198490000Y-104640000D02*
X198490000Y-107620000D01*
X198530000Y-99207000D02*
X198530000Y-102160000D01*
X198530000Y-104640000D02*
X198530000Y-107593000D01*
X198570000Y-99234000D02*
X198570000Y-102160000D01*
X198570000Y-104640000D02*
X198570000Y-107566000D01*
X198610000Y-99262000D02*
X198610000Y-102160000D01*
X198610000Y-104640000D02*
X198610000Y-107538000D01*
X198650000Y-99291000D02*
X198650000Y-102160000D01*
X198650000Y-104640000D02*
X198650000Y-107509000D01*
X198690000Y-99320000D02*
X198690000Y-102160000D01*
X198690000Y-104640000D02*
X198690000Y-107480000D01*
X198730000Y-99350000D02*
X198730000Y-102160000D01*
X198730000Y-104640000D02*
X198730000Y-107450000D01*
X198770000Y-99380000D02*
X198770000Y-102160000D01*
X198770000Y-104640000D02*
X198770000Y-107420000D01*
X198810000Y-99412000D02*
X198810000Y-102160000D01*
X198810000Y-104640000D02*
X198810000Y-107388000D01*
X198850000Y-99443000D02*
X198850000Y-102160000D01*
X198850000Y-104640000D02*
X198850000Y-107357000D01*
X198890000Y-99476000D02*
X198890000Y-102160000D01*
X198890000Y-104640000D02*
X198890000Y-107324000D01*
X198930000Y-99509000D02*
X198930000Y-102160000D01*
X198930000Y-104640000D02*
X198930000Y-107291000D01*
X198970000Y-99542000D02*
X198970000Y-102160000D01*
X198970000Y-104640000D02*
X198970000Y-107258000D01*
X199010000Y-99577000D02*
X199010000Y-102160000D01*
X199010000Y-104640000D02*
X199010000Y-107223000D01*
X199050000Y-99612000D02*
X199050000Y-102160000D01*
X199050000Y-104640000D02*
X199050000Y-107188000D01*
X199090000Y-99648000D02*
X199090000Y-102160000D01*
X199090000Y-104640000D02*
X199090000Y-107152000D01*
X199130000Y-99684000D02*
X199130000Y-102160000D01*
X199130000Y-104640000D02*
X199130000Y-107116000D01*
X199170000Y-99722000D02*
X199170000Y-102160000D01*
X199170000Y-104640000D02*
X199170000Y-107078000D01*
X199210000Y-99760000D02*
X199210000Y-102160000D01*
X199210000Y-104640000D02*
X199210000Y-107040000D01*
X199250000Y-99799000D02*
X199250000Y-102160000D01*
X199250000Y-104640000D02*
X199250000Y-107001000D01*
X199290000Y-99839000D02*
X199290000Y-102160000D01*
X199290000Y-104640000D02*
X199290000Y-106961000D01*
X199330000Y-99880000D02*
X199330000Y-102160000D01*
X199330000Y-104640000D02*
X199330000Y-106920000D01*
X199370000Y-99922000D02*
X199370000Y-102160000D01*
X199370000Y-104640000D02*
X199370000Y-106878000D01*
X199410000Y-99965000D02*
X199410000Y-102160000D01*
X199410000Y-104640000D02*
X199410000Y-106835000D01*
X199450000Y-100009000D02*
X199450000Y-102160000D01*
X199450000Y-104640000D02*
X199450000Y-106791000D01*
X199490000Y-100053000D02*
X199490000Y-102160000D01*
X199490000Y-104640000D02*
X199490000Y-106747000D01*
X199530000Y-100099000D02*
X199530000Y-102160000D01*
X199530000Y-104640000D02*
X199530000Y-106701000D01*
X199570000Y-100146000D02*
X199570000Y-102160000D01*
X199570000Y-104640000D02*
X199570000Y-106654000D01*
X199610000Y-100195000D02*
X199610000Y-102160000D01*
X199610000Y-104640000D02*
X199610000Y-106605000D01*
X199650000Y-100244000D02*
X199650000Y-102160000D01*
X199650000Y-104640000D02*
X199650000Y-106556000D01*
X199690000Y-100295000D02*
X199690000Y-102160000D01*
X199690000Y-104640000D02*
X199690000Y-106505000D01*
X199730000Y-100347000D02*
X199730000Y-102160000D01*
X199730000Y-104640000D02*
X199730000Y-106453000D01*
X199770000Y-100400000D02*
X199770000Y-102160000D01*
X199770000Y-104640000D02*
X199770000Y-106400000D01*
X199810000Y-100455000D02*
X199810000Y-102160000D01*
X199810000Y-104640000D02*
X199810000Y-106345000D01*
X199850000Y-100512000D02*
X199850000Y-102160000D01*
X199850000Y-104640000D02*
X199850000Y-106288000D01*
X199890000Y-100570000D02*
X199890000Y-102160000D01*
X199890000Y-104640000D02*
X199890000Y-106230000D01*
X199930000Y-100630000D02*
X199930000Y-102160000D01*
X199930000Y-104640000D02*
X199930000Y-106170000D01*
X199970000Y-100692000D02*
X199970000Y-102160000D01*
X199970000Y-104640000D02*
X199970000Y-106108000D01*
X200010000Y-100756000D02*
X200010000Y-102160000D01*
X200010000Y-104640000D02*
X200010000Y-106044000D01*
X200050000Y-100822000D02*
X200050000Y-102160000D01*
X200050000Y-104640000D02*
X200050000Y-105978000D01*
X200090000Y-100890000D02*
X200090000Y-102160000D01*
X200090000Y-104640000D02*
X200090000Y-105910000D01*
X200130000Y-100961000D02*
X200130000Y-102160000D01*
X200130000Y-104640000D02*
X200130000Y-105839000D01*
X200170000Y-101035000D02*
X200170000Y-102160000D01*
X200170000Y-104640000D02*
X200170000Y-105765000D01*
X200210000Y-101112000D02*
X200210000Y-102160000D01*
X200210000Y-104640000D02*
X200210000Y-105688000D01*
X200250000Y-101192000D02*
X200250000Y-102160000D01*
X200250000Y-104640000D02*
X200250000Y-105608000D01*
X200290000Y-101276000D02*
X200290000Y-102160000D01*
X200290000Y-104640000D02*
X200290000Y-105524000D01*
X200330000Y-101363000D02*
X200330000Y-102160000D01*
X200330000Y-104640000D02*
X200330000Y-105437000D01*
X200370000Y-101456000D02*
X200370000Y-102160000D01*
X200370000Y-104640000D02*
X200370000Y-105344000D01*
X200410000Y-101554000D02*
X200410000Y-102160000D01*
X200410000Y-104640000D02*
X200410000Y-105246000D01*
X200450000Y-101658000D02*
X200450000Y-102160000D01*
X200450000Y-104640000D02*
X200450000Y-105142000D01*
X200490000Y-101770000D02*
X200490000Y-102160000D01*
X200490000Y-104640000D02*
X200490000Y-105030000D01*
X200530000Y-101891000D02*
X200530000Y-102160000D01*
X200530000Y-104640000D02*
X200530000Y-104909000D01*
X200570000Y-102023000D02*
X200570000Y-102160000D01*
X200570000Y-104640000D02*
X200570000Y-104777000D01*
X200650000Y-102338000D02*
X200650000Y-104462000D01*
X200690000Y-102538000D02*
X200690000Y-104262000D01*
X200730000Y-102801000D02*
X200730000Y-103999000D01*
X190687460Y-102140000D02*
G75*
G02*
X190687460Y-104660000I4962540J-1260000D01*
G01*
%TO.C,R3*%
X180470000Y-105720000D02*
X180470000Y-105240000D01*
X180470000Y-101880000D02*
X180470000Y-102360000D01*
X170330000Y-105720000D02*
X180470000Y-105720000D01*
X170330000Y-105240000D02*
X170330000Y-105720000D01*
X170330000Y-102360000D02*
X170330000Y-101880000D01*
X170330000Y-101880000D02*
X180470000Y-101880000D01*
%TO.C,R4*%
X187860000Y-89500000D02*
X181670000Y-89500000D01*
X165340000Y-89500000D02*
X171530000Y-89500000D01*
X171530000Y-87580000D02*
X181670000Y-87580000D01*
X181670000Y-91420000D01*
X171530000Y-91420000D01*
X171530000Y-87580000D01*
%TO.C,R2*%
X143730000Y-90280000D02*
X153870000Y-90280000D01*
X143730000Y-90760000D02*
X143730000Y-90280000D01*
X143730000Y-93640000D02*
X143730000Y-94120000D01*
X143730000Y-94120000D02*
X153870000Y-94120000D01*
X153870000Y-90280000D02*
X153870000Y-90760000D01*
X153870000Y-94120000D02*
X153870000Y-93640000D01*
%TO.C,R1*%
X180370000Y-112820000D02*
X170230000Y-112820000D01*
X180370000Y-112340000D02*
X180370000Y-112820000D01*
X180370000Y-109460000D02*
X180370000Y-108980000D01*
X180370000Y-108980000D02*
X170230000Y-108980000D01*
X170230000Y-112820000D02*
X170230000Y-112340000D01*
X170230000Y-108980000D02*
X170230000Y-109460000D01*
%TO.C,Q1*%
X165202340Y-94121853D02*
X164361850Y-94962343D01*
X166178147Y-95097660D02*
X165202340Y-94121853D01*
X165337657Y-95938150D02*
X166178147Y-95097660D01*
X165337657Y-95938150D02*
G75*
G02*
X164361850Y-94962343I-2559618J-1583811D01*
G01*
%TO.C,L1*%
X149560000Y-102240000D02*
X149560000Y-117960000D01*
X126440000Y-102240000D02*
X126440000Y-117960000D01*
X131993291Y-100457954D02*
G75*
G02*
X144006709Y-100457954I6006709J-9642046D01*
G01*
X131993291Y-100457954D02*
G75*
G02*
X126440000Y-102240000I-6316039J10138591D01*
G01*
X149560000Y-102240000D02*
G75*
G02*
X144006709Y-100457954I762738J11920607D01*
G01*
X126440000Y-117959999D02*
G75*
G02*
X131993291Y-119742045I-762740J-11920611D01*
G01*
X144006709Y-119742045D02*
G75*
G02*
X131993291Y-119742045I-6006709J9642045D01*
G01*
X144006710Y-119742046D02*
G75*
G02*
X149560000Y-117960000I6316040J-10138594D01*
G01*
%TO.C,J2*%
X205952500Y-104105000D02*
X205952500Y-93705000D01*
X208972500Y-104105000D02*
X208972500Y-93705000D01*
X213872500Y-104105000D02*
X213872500Y-93705000D01*
X215372500Y-104105000D02*
X215372500Y-93705000D01*
X215992500Y-104105000D02*
X205952500Y-104105000D01*
X215992500Y-101745000D02*
X215992500Y-104105000D01*
X205952500Y-93705000D02*
X215992500Y-93705000D01*
X215992500Y-93705000D02*
X215992500Y-101145000D01*
X215992500Y-101445000D02*
X216602500Y-101005000D01*
X216602500Y-101885000D01*
X215992500Y-101445000D01*
G36*
X216602500Y-101885000D02*
G01*
X215992500Y-101445000D01*
X216602500Y-101005000D01*
X216602500Y-101885000D01*
G37*
%TO.C,J1*%
X110947500Y-93795000D02*
X110947500Y-104195000D01*
X107927500Y-93795000D02*
X107927500Y-104195000D01*
X103027500Y-93795000D02*
X103027500Y-104195000D01*
X101527500Y-93795000D02*
X101527500Y-104195000D01*
X100907500Y-93795000D02*
X110947500Y-93795000D01*
X100907500Y-96155000D02*
X100907500Y-93795000D01*
X110947500Y-104195000D02*
X100907500Y-104195000D01*
X100907500Y-104195000D02*
X100907500Y-96755000D01*
X100907500Y-96455000D02*
X100297500Y-96895000D01*
X100297500Y-96015000D01*
X100907500Y-96455000D01*
G36*
X100907500Y-96455000D02*
G01*
X100297500Y-96895000D01*
X100297500Y-96015000D01*
X100907500Y-96455000D01*
G37*
%TO.C,C1*%
X155949759Y-104661000D02*
X156579759Y-104661000D01*
X156264759Y-104346000D02*
X156264759Y-104976000D01*
X159450000Y-103270000D02*
X159450000Y-109730000D01*
X159490000Y-103270000D02*
X159490000Y-109730000D01*
X159530000Y-103271000D02*
X159530000Y-109729000D01*
X159570000Y-103272000D02*
X159570000Y-109728000D01*
X159610000Y-103274000D02*
X159610000Y-109726000D01*
X159650000Y-103276000D02*
X159650000Y-109724000D01*
X159690000Y-103279000D02*
X159690000Y-105460000D01*
X159690000Y-107540000D02*
X159690000Y-109721000D01*
X159730000Y-103282000D02*
X159730000Y-105460000D01*
X159730000Y-107540000D02*
X159730000Y-109718000D01*
X159770000Y-103286000D02*
X159770000Y-105460000D01*
X159770000Y-107540000D02*
X159770000Y-109714000D01*
X159810000Y-103290000D02*
X159810000Y-105460000D01*
X159810000Y-107540000D02*
X159810000Y-109710000D01*
X159850000Y-103295000D02*
X159850000Y-105460000D01*
X159850000Y-107540000D02*
X159850000Y-109705000D01*
X159890000Y-103300000D02*
X159890000Y-105460000D01*
X159890000Y-107540000D02*
X159890000Y-109700000D01*
X159930000Y-103305000D02*
X159930000Y-105460000D01*
X159930000Y-107540000D02*
X159930000Y-109695000D01*
X159970000Y-103312000D02*
X159970000Y-105460000D01*
X159970000Y-107540000D02*
X159970000Y-109688000D01*
X160010000Y-103318000D02*
X160010000Y-105460000D01*
X160010000Y-107540000D02*
X160010000Y-109682000D01*
X160050000Y-103326000D02*
X160050000Y-105460000D01*
X160050000Y-107540000D02*
X160050000Y-109674000D01*
X160090000Y-103333000D02*
X160090000Y-105460000D01*
X160090000Y-107540000D02*
X160090000Y-109667000D01*
X160130000Y-103341000D02*
X160130000Y-105460000D01*
X160130000Y-107540000D02*
X160130000Y-109659000D01*
X160170000Y-103350000D02*
X160170000Y-105460000D01*
X160170000Y-107540000D02*
X160170000Y-109650000D01*
X160210000Y-103360000D02*
X160210000Y-105460000D01*
X160210000Y-107540000D02*
X160210000Y-109640000D01*
X160250000Y-103369000D02*
X160250000Y-105460000D01*
X160250000Y-107540000D02*
X160250000Y-109631000D01*
X160290000Y-103380000D02*
X160290000Y-105460000D01*
X160290000Y-107540000D02*
X160290000Y-109620000D01*
X160330000Y-103391000D02*
X160330000Y-105460000D01*
X160330000Y-107540000D02*
X160330000Y-109609000D01*
X160370000Y-103402000D02*
X160370000Y-105460000D01*
X160370000Y-107540000D02*
X160370000Y-109598000D01*
X160410000Y-103414000D02*
X160410000Y-105460000D01*
X160410000Y-107540000D02*
X160410000Y-109586000D01*
X160450000Y-103427000D02*
X160450000Y-105460000D01*
X160450000Y-107540000D02*
X160450000Y-109573000D01*
X160490000Y-103440000D02*
X160490000Y-105460000D01*
X160490000Y-107540000D02*
X160490000Y-109560000D01*
X160530000Y-103453000D02*
X160530000Y-105460000D01*
X160530000Y-107540000D02*
X160530000Y-109547000D01*
X160570000Y-103468000D02*
X160570000Y-105460000D01*
X160570000Y-107540000D02*
X160570000Y-109532000D01*
X160610000Y-103483000D02*
X160610000Y-105460000D01*
X160610000Y-107540000D02*
X160610000Y-109517000D01*
X160650000Y-103498000D02*
X160650000Y-105460000D01*
X160650000Y-107540000D02*
X160650000Y-109502000D01*
X160690000Y-103514000D02*
X160690000Y-105460000D01*
X160690000Y-107540000D02*
X160690000Y-109486000D01*
X160730000Y-103531000D02*
X160730000Y-105460000D01*
X160730000Y-107540000D02*
X160730000Y-109469000D01*
X160770000Y-103548000D02*
X160770000Y-105460000D01*
X160770000Y-107540000D02*
X160770000Y-109452000D01*
X160810000Y-103566000D02*
X160810000Y-105460000D01*
X160810000Y-107540000D02*
X160810000Y-109434000D01*
X160850000Y-103585000D02*
X160850000Y-105460000D01*
X160850000Y-107540000D02*
X160850000Y-109415000D01*
X160890000Y-103604000D02*
X160890000Y-105460000D01*
X160890000Y-107540000D02*
X160890000Y-109396000D01*
X160930000Y-103624000D02*
X160930000Y-105460000D01*
X160930000Y-107540000D02*
X160930000Y-109376000D01*
X160970000Y-103645000D02*
X160970000Y-105460000D01*
X160970000Y-107540000D02*
X160970000Y-109355000D01*
X161010000Y-103666000D02*
X161010000Y-105460000D01*
X161010000Y-107540000D02*
X161010000Y-109334000D01*
X161050000Y-103688000D02*
X161050000Y-105460000D01*
X161050000Y-107540000D02*
X161050000Y-109312000D01*
X161090000Y-103711000D02*
X161090000Y-105460000D01*
X161090000Y-107540000D02*
X161090000Y-109289000D01*
X161130000Y-103735000D02*
X161130000Y-105460000D01*
X161130000Y-107540000D02*
X161130000Y-109265000D01*
X161170000Y-103759000D02*
X161170000Y-105460000D01*
X161170000Y-107540000D02*
X161170000Y-109241000D01*
X161210000Y-103784000D02*
X161210000Y-105460000D01*
X161210000Y-107540000D02*
X161210000Y-109216000D01*
X161250000Y-103810000D02*
X161250000Y-105460000D01*
X161250000Y-107540000D02*
X161250000Y-109190000D01*
X161290000Y-103837000D02*
X161290000Y-105460000D01*
X161290000Y-107540000D02*
X161290000Y-109163000D01*
X161330000Y-103864000D02*
X161330000Y-105460000D01*
X161330000Y-107540000D02*
X161330000Y-109136000D01*
X161370000Y-103893000D02*
X161370000Y-105460000D01*
X161370000Y-107540000D02*
X161370000Y-109107000D01*
X161410000Y-103923000D02*
X161410000Y-105460000D01*
X161410000Y-107540000D02*
X161410000Y-109077000D01*
X161450000Y-103953000D02*
X161450000Y-105460000D01*
X161450000Y-107540000D02*
X161450000Y-109047000D01*
X161490000Y-103984000D02*
X161490000Y-105460000D01*
X161490000Y-107540000D02*
X161490000Y-109016000D01*
X161530000Y-104017000D02*
X161530000Y-105460000D01*
X161530000Y-107540000D02*
X161530000Y-108983000D01*
X161570000Y-104050000D02*
X161570000Y-105460000D01*
X161570000Y-107540000D02*
X161570000Y-108950000D01*
X161610000Y-104085000D02*
X161610000Y-105460000D01*
X161610000Y-107540000D02*
X161610000Y-108915000D01*
X161650000Y-104121000D02*
X161650000Y-105460000D01*
X161650000Y-107540000D02*
X161650000Y-108879000D01*
X161690000Y-104158000D02*
X161690000Y-105460000D01*
X161690000Y-107540000D02*
X161690000Y-108842000D01*
X161730000Y-104196000D02*
X161730000Y-105460000D01*
X161730000Y-107540000D02*
X161730000Y-108804000D01*
X161770000Y-104236000D02*
X161770000Y-108764000D01*
X161810000Y-104277000D02*
X161810000Y-108723000D01*
X161850000Y-104319000D02*
X161850000Y-108681000D01*
X161890000Y-104363000D02*
X161890000Y-108637000D01*
X161930000Y-104409000D02*
X161930000Y-108591000D01*
X161970000Y-104456000D02*
X161970000Y-108544000D01*
X162010000Y-104505000D02*
X162010000Y-108495000D01*
X162050000Y-104557000D02*
X162050000Y-108443000D01*
X162090000Y-104610000D02*
X162090000Y-108390000D01*
X162130000Y-104666000D02*
X162130000Y-108334000D01*
X162170000Y-104725000D02*
X162170000Y-108275000D01*
X162210000Y-104786000D02*
X162210000Y-108214000D01*
X162250000Y-104851000D02*
X162250000Y-108149000D01*
X162290000Y-104919000D02*
X162290000Y-108081000D01*
X162330000Y-104991000D02*
X162330000Y-108009000D01*
X162370000Y-105068000D02*
X162370000Y-107932000D01*
X162410000Y-105150000D02*
X162410000Y-107850000D01*
X162450000Y-105239000D02*
X162450000Y-107761000D01*
X162490000Y-105335000D02*
X162490000Y-107665000D01*
X162530000Y-105442000D02*
X162530000Y-107558000D01*
X162570000Y-105561000D02*
X162570000Y-107439000D01*
X162610000Y-105699000D02*
X162610000Y-107301000D01*
X162650000Y-105867000D02*
X162650000Y-107133000D01*
X162690000Y-106098000D02*
X162690000Y-106902000D01*
X162720000Y-106500000D02*
G75*
G02*
X156180000Y-106500000I-3270000J0D01*
G01*
X156180000Y-106500000D02*
G75*
G02*
X162720000Y-106500000I3270000J0D01*
G01*
%TO.C,BT1*%
X115820000Y-82840000D02*
X115820000Y-85300000D01*
X115820000Y-91300000D02*
X115820000Y-91930000D01*
X115820000Y-91930000D02*
X117260000Y-95880000D01*
X117900000Y-80760000D02*
X115820000Y-82840000D01*
X121400000Y-80760000D02*
X117900000Y-80760000D01*
X135300000Y-80760000D02*
X131800000Y-80760000D01*
X135300000Y-80760000D02*
X137380000Y-82840000D01*
X137380000Y-82840000D02*
X137380000Y-85300000D01*
X137380000Y-91300000D02*
X137380000Y-91930000D01*
X137380000Y-91930000D02*
X135940000Y-95880000D01*
X120596646Y-96866530D02*
G75*
G02*
X117260000Y-95880000I-1306646J1716531D01*
G01*
X135925243Y-95888169D02*
G75*
G02*
X132600000Y-96850000I-2015243J738169D01*
G01*
%TD*%
M02*
