%TF.GenerationSoftware,KiCad,Pcbnew,10.0.5*%
%TF.CreationDate,2026-10-07T22:37:08+05:30*%
%TF.ProjectId,Amplitude Modulator,416d706c-6974-4756-9465-204d6f64756c,rev?*%
%TF.SameCoordinates,Original*%
%TF.FileFunction,Copper,L1,Top*%
%TF.FilePolarity,Positive*%
%FSLAX46Y46*%
G04 Gerber Fmt 4.6, Leading zero omitted, Abs format (unit mm)*
G04 Created by KiCad (PCBNEW 10.0.5) date 2026-10-07 22:37:08*
%MOMM*%
%LPD*%
G01*
G04 APERTURE LIST*
G04 Aperture macros list*
%AMRoundRect*
0 Rectangle with rounded corners*
0 $1 Rounding radius*
0 $2 $3 $4 $5 $6 $7 $8 $9 X,Y pos of 4 corners*
0 Add a 4 corners polygon primitive as box body*
4,1,4,$2,$3,$4,$5,$6,$7,$8,$9,$2,$3,0*
0 Add four circle primitives for the rounded corners*
1,1,$1+$1,$2,$3*
1,1,$1+$1,$4,$5*
1,1,$1+$1,$6,$7*
1,1,$1+$1,$8,$9*
0 Add four rect primitives between the rounded corners*
20,1,$1+$1,$2,$3,$4,$5,0*
20,1,$1+$1,$4,$5,$6,$7,0*
20,1,$1+$1,$6,$7,$8,$9,0*
20,1,$1+$1,$8,$9,$2,$3,0*%
G04 Aperture macros list end*
%TA.AperFunction,ComponentPad*%
%ADD10RoundRect,0.250000X-0.750000X-0.750000X0.750000X-0.750000X0.750000X0.750000X-0.750000X0.750000X0*%
%TD*%
%TA.AperFunction,ComponentPad*%
%ADD11C,2.000000*%
%TD*%
%TA.AperFunction,ComponentPad*%
%ADD12C,2.400000*%
%TD*%
%TA.AperFunction,ComponentPad*%
%ADD13O,1.200000X1.600000*%
%TD*%
%TA.AperFunction,ComponentPad*%
%ADD14C,1.200000*%
%TD*%
%TA.AperFunction,ComponentPad*%
%ADD15C,1.750000*%
%TD*%
%TA.AperFunction,ComponentPad*%
%ADD16RoundRect,0.250000X1.050000X-1.050000X1.050000X1.050000X-1.050000X1.050000X-1.050000X-1.050000X0*%
%TD*%
%TA.AperFunction,ComponentPad*%
%ADD17C,2.600000*%
%TD*%
%TA.AperFunction,ComponentPad*%
%ADD18RoundRect,0.250000X-1.050000X1.050000X-1.050000X-1.050000X1.050000X-1.050000X1.050000X1.050000X0*%
%TD*%
%TA.AperFunction,ComponentPad*%
%ADD19RoundRect,0.250000X-0.550000X-0.550000X0.550000X-0.550000X0.550000X0.550000X-0.550000X0.550000X0*%
%TD*%
%TA.AperFunction,ComponentPad*%
%ADD20C,1.600000*%
%TD*%
%TA.AperFunction,SMDPad,CuDef*%
%ADD21R,1.270000X5.080000*%
%TD*%
%TA.AperFunction,SMDPad,CuDef*%
%ADD22C,17.800000*%
%TD*%
%TA.AperFunction,Conductor*%
%ADD23C,1.000000*%
%TD*%
%TA.AperFunction,Conductor*%
%ADD24C,0.500000*%
%TD*%
G04 APERTURE END LIST*
D10*
%TO.P,C2,1*%
%TO.N,Net-(BT1-+)*%
X191900000Y-103400000D03*
D11*
%TO.P,C2,2*%
%TO.N,Net-(J2-Pin_1)*%
X199400000Y-103400000D03*
%TD*%
D12*
%TO.P,R3,2*%
%TO.N,Net-(BT1-+)*%
X181750000Y-103800000D03*
%TO.P,R3,1*%
%TO.N,Net-(Q1-B)*%
X169050000Y-103800000D03*
%TD*%
%TO.P,R4,1*%
%TO.N,Net-(J2-Pin_2)*%
X189300000Y-89500000D03*
%TO.P,R4,2*%
%TO.N,Net-(Q1-E)*%
X163900000Y-89500000D03*
%TD*%
%TO.P,R2,1*%
%TO.N,GND*%
X142450000Y-92200000D03*
%TO.P,R2,2*%
%TO.N,Net-(Q1-B)*%
X155150000Y-92200000D03*
%TD*%
%TO.P,R1,1*%
%TO.N,Net-(C1-Pad1)*%
X181650000Y-110900000D03*
%TO.P,R1,2*%
%TO.N,Net-(Q1-B)*%
X168950000Y-110900000D03*
%TD*%
D13*
%TO.P,Q1,1,E_1*%
%TO.N,Net-(Q1-E)*%
X162778039Y-96251961D03*
D14*
%TO.P,Q1,2,B_2*%
%TO.N,Net-(Q1-B)*%
X161508039Y-97521961D03*
%TO.P,Q1,3,C_3*%
%TO.N,Net-(J2-Pin_1)*%
X162778039Y-98791961D03*
%TD*%
D15*
%TO.P,L1,1,1_1*%
%TO.N,Net-(BT1-+)*%
X128000000Y-103850000D03*
%TO.P,L1,2,2_2*%
%TO.N,Net-(J2-Pin_1)*%
X148000000Y-103850000D03*
%TO.P,L1,3*%
%TO.N,N/C*%
X128000000Y-116350000D03*
%TO.P,L1,4*%
X148000000Y-116350000D03*
%TD*%
D16*
%TO.P,J2,1,Pin_1_1*%
%TO.N,Net-(J2-Pin_1)*%
X211272500Y-101445000D03*
D17*
%TO.P,J2,2,Pin_2_2*%
%TO.N,Net-(J2-Pin_2)*%
X211272500Y-96365000D03*
%TD*%
D18*
%TO.P,J1,1,Pin_1_1*%
%TO.N,GND*%
X105627500Y-96455000D03*
D17*
%TO.P,J1,2,Pin_2_2*%
%TO.N,Net-(J1-Pin_2)*%
X105627500Y-101535000D03*
%TD*%
D19*
%TO.P,C1,1*%
%TO.N,Net-(C1-Pad1)*%
X158200000Y-106500000D03*
D20*
%TO.P,C1,2*%
%TO.N,Net-(J1-Pin_2)*%
X160700000Y-106500000D03*
%TD*%
D21*
%TO.P,BT1,1,+_1*%
%TO.N,Net-(BT1-+)*%
X115615000Y-88300000D03*
X137585000Y-88300000D03*
D22*
%TO.P,BT1,2,-_2*%
%TO.N,GND*%
X126600000Y-88300000D03*
%TD*%
%TO.N,Net-(J2-Pin_1)*%
D23*
X201755000Y-101445000D02*
X211272500Y-101445000D01*
X199800000Y-103400000D02*
X201755000Y-101445000D01*
X199400000Y-103400000D02*
X199800000Y-103400000D01*
X197700000Y-105100000D02*
X199400000Y-103400000D01*
X197700000Y-106500000D02*
X197700000Y-105100000D01*
X197000000Y-107200000D02*
X197700000Y-106500000D01*
X180800000Y-107200000D02*
X197000000Y-107200000D01*
X173200000Y-114800000D02*
X180800000Y-107200000D01*
X169000000Y-114800000D02*
X173200000Y-114800000D01*
X165200000Y-111000000D02*
X169000000Y-114800000D01*
X165200000Y-100300000D02*
X165200000Y-111000000D01*
X163691961Y-98791961D02*
X165200000Y-100300000D01*
X162778039Y-98791961D02*
X163691961Y-98791961D01*
%TO.N,Net-(BT1-+)*%
X181750000Y-91850000D02*
X181750000Y-103800000D01*
X156000000Y-83700000D02*
X173600000Y-83700000D01*
X142685000Y-97015000D02*
X156000000Y-83700000D01*
X137585000Y-97015000D02*
X142685000Y-97015000D01*
X173600000Y-83700000D02*
X181750000Y-91850000D01*
%TO.N,Net-(J2-Pin_2)*%
D24*
X204407500Y-89500000D02*
X189300000Y-89500000D01*
X211272500Y-96365000D02*
X204407500Y-89500000D01*
%TO.N,Net-(BT1-+)*%
X182150000Y-103400000D02*
X181750000Y-103800000D01*
X191900000Y-103400000D02*
X182150000Y-103400000D01*
%TO.N,Net-(Q1-B)*%
X169050000Y-110800000D02*
X168950000Y-110900000D01*
X169050000Y-103800000D02*
X169050000Y-110800000D01*
X164469017Y-97521961D02*
X161508039Y-97521961D01*
X169050000Y-102102944D02*
X164469017Y-97521961D01*
X169050000Y-103800000D02*
X169050000Y-102102944D01*
%TO.N,Net-(J2-Pin_1)*%
D23*
X157720000Y-103850000D02*
X148000000Y-103850000D01*
X162778039Y-98791961D02*
X157720000Y-103850000D01*
%TO.N,Net-(Q1-B)*%
X160471961Y-97521961D02*
X155150000Y-92200000D01*
X161508039Y-97521961D02*
X160471961Y-97521961D01*
%TO.N,Net-(Q1-E)*%
X162778039Y-90621961D02*
X163900000Y-89500000D01*
X162778039Y-96251961D02*
X162778039Y-90621961D01*
%TO.N,Net-(BT1-+)*%
X130750000Y-103850000D02*
X128000000Y-103850000D01*
X137585000Y-97015000D02*
X130750000Y-103850000D01*
X137585000Y-88300000D02*
X137585000Y-97015000D01*
%TO.N,GND*%
X142450000Y-88150000D02*
X142450000Y-92200000D01*
X136600000Y-82300000D02*
X142450000Y-88150000D01*
X132600000Y-82300000D02*
X136600000Y-82300000D01*
X126600000Y-88300000D02*
X132600000Y-82300000D01*
%TO.N,Net-(BT1-+)*%
X123850000Y-103850000D02*
X128000000Y-103850000D01*
X115615000Y-95615000D02*
X123850000Y-103850000D01*
X115615000Y-88300000D02*
X115615000Y-95615000D01*
%TO.N,Net-(J1-Pin_2)*%
X156700000Y-110500000D02*
X160700000Y-106500000D01*
X114592500Y-110500000D02*
X156700000Y-110500000D01*
X105627500Y-101535000D02*
X114592500Y-110500000D01*
%TO.N,GND*%
X122700000Y-84400000D02*
X126600000Y-88300000D01*
X114100000Y-84400000D02*
X122700000Y-84400000D01*
X105627500Y-92872500D02*
X114100000Y-84400000D01*
X105627500Y-96455000D02*
X105627500Y-92872500D01*
%TO.N,Net-(C1-Pad1)*%
D24*
X163000000Y-106500000D02*
X163000000Y-111800000D01*
X159800000Y-104900000D02*
X161400000Y-104900000D01*
X158200000Y-106500000D02*
X159800000Y-104900000D01*
X161400000Y-104900000D02*
X163000000Y-106500000D01*
X163000000Y-111800000D02*
X168300000Y-117100000D01*
X168300000Y-117100000D02*
X175450000Y-117100000D01*
X175450000Y-117100000D02*
X181650000Y-110900000D01*
%TD*%
%TA.AperFunction,Conductor*%
%TO.N,GND*%
G36*
X216742539Y-75320185D02*
G01*
X216788294Y-75372989D01*
X216799500Y-75424500D01*
X216799500Y-125875500D01*
X216779815Y-125942539D01*
X216727011Y-125988294D01*
X216675500Y-125999500D01*
X100324500Y-125999500D01*
X100257461Y-125979815D01*
X100211706Y-125927011D01*
X100200500Y-125875500D01*
X100200500Y-116241746D01*
X126624500Y-116241746D01*
X126624500Y-116458253D01*
X126658370Y-116672098D01*
X126725272Y-116878006D01*
X126725273Y-116878009D01*
X126823567Y-117070919D01*
X126950828Y-117246078D01*
X127103922Y-117399172D01*
X127279081Y-117526433D01*
X127373697Y-117574642D01*
X127471990Y-117624726D01*
X127471993Y-117624727D01*
X127574947Y-117658178D01*
X127677903Y-117691630D01*
X127891746Y-117725500D01*
X127891747Y-117725500D01*
X128108253Y-117725500D01*
X128108254Y-117725500D01*
X128322097Y-117691630D01*
X128528009Y-117624726D01*
X128720919Y-117526433D01*
X128896078Y-117399172D01*
X129049172Y-117246078D01*
X129176433Y-117070919D01*
X129274726Y-116878009D01*
X129341630Y-116672097D01*
X129375500Y-116458254D01*
X129375500Y-116241746D01*
X146624500Y-116241746D01*
X146624500Y-116458253D01*
X146658370Y-116672098D01*
X146725272Y-116878006D01*
X146725273Y-116878009D01*
X146823567Y-117070919D01*
X146950828Y-117246078D01*
X147103922Y-117399172D01*
X147279081Y-117526433D01*
X147373697Y-117574642D01*
X147471990Y-117624726D01*
X147471993Y-117624727D01*
X147574947Y-117658178D01*
X147677903Y-117691630D01*
X147891746Y-117725500D01*
X147891747Y-117725500D01*
X148108253Y-117725500D01*
X148108254Y-117725500D01*
X148322097Y-117691630D01*
X148528009Y-117624726D01*
X148720919Y-117526433D01*
X148896078Y-117399172D01*
X149049172Y-117246078D01*
X149176433Y-117070919D01*
X149274726Y-116878009D01*
X149341630Y-116672097D01*
X149375500Y-116458254D01*
X149375500Y-116241746D01*
X149341630Y-116027903D01*
X149274726Y-115821991D01*
X149274726Y-115821990D01*
X149176432Y-115629080D01*
X149138695Y-115577140D01*
X149049172Y-115453922D01*
X148896078Y-115300828D01*
X148720919Y-115173567D01*
X148528009Y-115075273D01*
X148528006Y-115075272D01*
X148322098Y-115008370D01*
X148215175Y-114991435D01*
X148108254Y-114974500D01*
X147891746Y-114974500D01*
X147820465Y-114985790D01*
X147677901Y-115008370D01*
X147471993Y-115075272D01*
X147471990Y-115075273D01*
X147279080Y-115173567D01*
X147179145Y-115246174D01*
X147103922Y-115300828D01*
X147103920Y-115300830D01*
X147103919Y-115300830D01*
X146950830Y-115453919D01*
X146950830Y-115453920D01*
X146950828Y-115453922D01*
X146896174Y-115529145D01*
X146823567Y-115629080D01*
X146725273Y-115821990D01*
X146725272Y-115821993D01*
X146658370Y-116027901D01*
X146624500Y-116241746D01*
X129375500Y-116241746D01*
X129341630Y-116027903D01*
X129274726Y-115821991D01*
X129274726Y-115821990D01*
X129176432Y-115629080D01*
X129138695Y-115577140D01*
X129049172Y-115453922D01*
X128896078Y-115300828D01*
X128720919Y-115173567D01*
X128528009Y-115075273D01*
X128528006Y-115075272D01*
X128322098Y-115008370D01*
X128215175Y-114991435D01*
X128108254Y-114974500D01*
X127891746Y-114974500D01*
X127820465Y-114985790D01*
X127677901Y-115008370D01*
X127471993Y-115075272D01*
X127471990Y-115075273D01*
X127279080Y-115173567D01*
X127179145Y-115246174D01*
X127103922Y-115300828D01*
X127103920Y-115300830D01*
X127103919Y-115300830D01*
X126950830Y-115453919D01*
X126950830Y-115453920D01*
X126950828Y-115453922D01*
X126896174Y-115529145D01*
X126823567Y-115629080D01*
X126725273Y-115821990D01*
X126725272Y-115821993D01*
X126658370Y-116027901D01*
X126624500Y-116241746D01*
X100200500Y-116241746D01*
X100200500Y-101416995D01*
X103827000Y-101416995D01*
X103827000Y-101653004D01*
X103827001Y-101653020D01*
X103857414Y-101884036D01*
X103857807Y-101887014D01*
X103890609Y-102009432D01*
X103918894Y-102114993D01*
X104009214Y-102333045D01*
X104009219Y-102333056D01*
X104065286Y-102430165D01*
X104127227Y-102537450D01*
X104127229Y-102537453D01*
X104127230Y-102537454D01*
X104270906Y-102724697D01*
X104270912Y-102724704D01*
X104437795Y-102891587D01*
X104437802Y-102891593D01*
X104519031Y-102953922D01*
X104625050Y-103035273D01*
X104756418Y-103111118D01*
X104829443Y-103153280D01*
X104829448Y-103153282D01*
X104829451Y-103153284D01*
X105047507Y-103243606D01*
X105275486Y-103304693D01*
X105509489Y-103335500D01*
X105509496Y-103335500D01*
X105745504Y-103335500D01*
X105745511Y-103335500D01*
X105921326Y-103312353D01*
X105990359Y-103323118D01*
X106025191Y-103347611D01*
X113954715Y-111277137D01*
X113954719Y-111277140D01*
X114118579Y-111386628D01*
X114118585Y-111386631D01*
X114118586Y-111386632D01*
X114300665Y-111462052D01*
X114436805Y-111489132D01*
X114493955Y-111500500D01*
X114493958Y-111500501D01*
X114493960Y-111500501D01*
X114697155Y-111500501D01*
X114697175Y-111500500D01*
X156798543Y-111500500D01*
X156878012Y-111484692D01*
X156917748Y-111476788D01*
X156991836Y-111462051D01*
X157045165Y-111439961D01*
X157173914Y-111386632D01*
X157337782Y-111277139D01*
X157477139Y-111137782D01*
X157477139Y-111137780D01*
X157487347Y-111127573D01*
X157487348Y-111127570D01*
X160788204Y-107826715D01*
X160849525Y-107793232D01*
X160856475Y-107791926D01*
X161004534Y-107768477D01*
X161199219Y-107705220D01*
X161381610Y-107612287D01*
X161510482Y-107518657D01*
X161547213Y-107491971D01*
X161547215Y-107491968D01*
X161547219Y-107491966D01*
X161691966Y-107347219D01*
X161691968Y-107347215D01*
X161691971Y-107347213D01*
X161796892Y-107202799D01*
X161812287Y-107181610D01*
X161905220Y-106999219D01*
X161968477Y-106804534D01*
X161969612Y-106799806D01*
X161971533Y-106800267D01*
X161997854Y-106744679D01*
X162057148Y-106707719D01*
X162127011Y-106708683D01*
X162178118Y-106739486D01*
X162213181Y-106774549D01*
X162246666Y-106835872D01*
X162249500Y-106862230D01*
X162249500Y-111873918D01*
X162249500Y-111873920D01*
X162249499Y-111873920D01*
X162278340Y-112018907D01*
X162278343Y-112018917D01*
X162334912Y-112155488D01*
X162334916Y-112155495D01*
X162352121Y-112181244D01*
X162352122Y-112181247D01*
X162417046Y-112278414D01*
X162417052Y-112278421D01*
X167821578Y-117682947D01*
X167821585Y-117682953D01*
X167885258Y-117725497D01*
X167885260Y-117725498D01*
X167885263Y-117725500D01*
X167944505Y-117765084D01*
X168081087Y-117821658D01*
X168081091Y-117821658D01*
X168081092Y-117821659D01*
X168226079Y-117850500D01*
X168226082Y-117850500D01*
X175523920Y-117850500D01*
X175621462Y-117831096D01*
X175668913Y-117821658D01*
X175805495Y-117765084D01*
X175864737Y-117725500D01*
X175864737Y-117725499D01*
X175864739Y-117725499D01*
X175915428Y-117691630D01*
X175928416Y-117682952D01*
X181047999Y-112563366D01*
X181109320Y-112529883D01*
X181167768Y-112531273D01*
X181317537Y-112571404D01*
X181538543Y-112600500D01*
X181538550Y-112600500D01*
X181761450Y-112600500D01*
X181761457Y-112600500D01*
X181982463Y-112571404D01*
X182197781Y-112513710D01*
X182403726Y-112428405D01*
X182596774Y-112316948D01*
X182773624Y-112181247D01*
X182931247Y-112023624D01*
X183066948Y-111846774D01*
X183178405Y-111653726D01*
X183263710Y-111447781D01*
X183321404Y-111232463D01*
X183350500Y-111011457D01*
X183350500Y-110788543D01*
X183321404Y-110567537D01*
X183263710Y-110352219D01*
X183178405Y-110146274D01*
X183066948Y-109953226D01*
X182931247Y-109776376D01*
X182931242Y-109776370D01*
X182773629Y-109618757D01*
X182773622Y-109618751D01*
X182596782Y-109483058D01*
X182596780Y-109483057D01*
X182596774Y-109483052D01*
X182403726Y-109371595D01*
X182403722Y-109371593D01*
X182197790Y-109286293D01*
X182197783Y-109286291D01*
X182197781Y-109286290D01*
X181982463Y-109228596D01*
X181982457Y-109228595D01*
X181982452Y-109228594D01*
X181761466Y-109199501D01*
X181761463Y-109199500D01*
X181761457Y-109199500D01*
X181538543Y-109199500D01*
X181538537Y-109199500D01*
X181538533Y-109199501D01*
X181317547Y-109228594D01*
X181317540Y-109228595D01*
X181317537Y-109228596D01*
X181252648Y-109245983D01*
X181102219Y-109286290D01*
X181102209Y-109286293D01*
X180896277Y-109371593D01*
X180896273Y-109371595D01*
X180703226Y-109483052D01*
X180703217Y-109483058D01*
X180526377Y-109618751D01*
X180526370Y-109618757D01*
X180368757Y-109776370D01*
X180368751Y-109776377D01*
X180233058Y-109953217D01*
X180233052Y-109953226D01*
X180121595Y-110146273D01*
X180121593Y-110146277D01*
X180036293Y-110352209D01*
X180036290Y-110352219D01*
X179980462Y-110560575D01*
X179978597Y-110567534D01*
X179978594Y-110567547D01*
X179949501Y-110788533D01*
X179949500Y-110788549D01*
X179949500Y-111011450D01*
X179949501Y-111011466D01*
X179978594Y-111232452D01*
X179978595Y-111232457D01*
X179978596Y-111232463D01*
X179994503Y-111291829D01*
X180018725Y-111382226D01*
X180017062Y-111452076D01*
X179986631Y-111502000D01*
X175175451Y-116313181D01*
X175114128Y-116346666D01*
X175087770Y-116349500D01*
X168662230Y-116349500D01*
X168595191Y-116329815D01*
X168574549Y-116313181D01*
X163786819Y-111525451D01*
X163753334Y-111464128D01*
X163750500Y-111437770D01*
X163750500Y-106426081D01*
X163744763Y-106397242D01*
X163744763Y-106397240D01*
X163721660Y-106281095D01*
X163721659Y-106281088D01*
X163667408Y-106150117D01*
X163665765Y-106145525D01*
X163665084Y-106144505D01*
X163617609Y-106073453D01*
X163617609Y-106073452D01*
X163582950Y-106021581D01*
X161878421Y-104317052D01*
X161878414Y-104317046D01*
X161804729Y-104267812D01*
X161804729Y-104267813D01*
X161755491Y-104234913D01*
X161618917Y-104178343D01*
X161618907Y-104178340D01*
X161473920Y-104149500D01*
X161473918Y-104149500D01*
X159726082Y-104149500D01*
X159726076Y-104149500D01*
X159697242Y-104155234D01*
X159697243Y-104155235D01*
X159581092Y-104178339D01*
X159581086Y-104178341D01*
X159528777Y-104200009D01*
X159444509Y-104234914D01*
X159444496Y-104234921D01*
X159395270Y-104267811D01*
X159395271Y-104267812D01*
X159321581Y-104317049D01*
X158475449Y-105163181D01*
X158414126Y-105196666D01*
X158387768Y-105199500D01*
X157599998Y-105199500D01*
X157599980Y-105199501D01*
X157497203Y-105210000D01*
X157497200Y-105210001D01*
X157330668Y-105265185D01*
X157330663Y-105265187D01*
X157181342Y-105357289D01*
X157057289Y-105481342D01*
X156965187Y-105630663D01*
X156965186Y-105630666D01*
X156910001Y-105797203D01*
X156910001Y-105797204D01*
X156910000Y-105797204D01*
X156899500Y-105899983D01*
X156899500Y-107100001D01*
X156899501Y-107100018D01*
X156910000Y-107202796D01*
X156910001Y-107202799D01*
X156957856Y-107347213D01*
X156965186Y-107369334D01*
X157057288Y-107518656D01*
X157181344Y-107642712D01*
X157330666Y-107734814D01*
X157497203Y-107789999D01*
X157599991Y-107800500D01*
X157685217Y-107800499D01*
X157752254Y-107820183D01*
X157798010Y-107872986D01*
X157807954Y-107942145D01*
X157778930Y-108005701D01*
X157772897Y-108012180D01*
X156321899Y-109463181D01*
X156260576Y-109496666D01*
X156234218Y-109499500D01*
X115058283Y-109499500D01*
X114991244Y-109479815D01*
X114970602Y-109463181D01*
X107440111Y-101932691D01*
X107406626Y-101871368D01*
X107404853Y-101828828D01*
X107428000Y-101653011D01*
X107428000Y-101416989D01*
X107397193Y-101182986D01*
X107336106Y-100955007D01*
X107245784Y-100736951D01*
X107245782Y-100736948D01*
X107245780Y-100736943D01*
X107174898Y-100614173D01*
X107127773Y-100532550D01*
X106984092Y-100345301D01*
X106984087Y-100345295D01*
X106817204Y-100178412D01*
X106817197Y-100178406D01*
X106629954Y-100034730D01*
X106629953Y-100034729D01*
X106629950Y-100034727D01*
X106548457Y-99987677D01*
X106425556Y-99916719D01*
X106425545Y-99916714D01*
X106207493Y-99826394D01*
X106168042Y-99815823D01*
X105979514Y-99765307D01*
X105979513Y-99765306D01*
X105979510Y-99765306D01*
X105745520Y-99734501D01*
X105745517Y-99734500D01*
X105745511Y-99734500D01*
X105509489Y-99734500D01*
X105509483Y-99734500D01*
X105509479Y-99734501D01*
X105275489Y-99765306D01*
X105047506Y-99826394D01*
X104829454Y-99916714D01*
X104829443Y-99916719D01*
X104625045Y-100034730D01*
X104437802Y-100178406D01*
X104437795Y-100178412D01*
X104270912Y-100345295D01*
X104270906Y-100345302D01*
X104127230Y-100532545D01*
X104009219Y-100736943D01*
X104009214Y-100736954D01*
X103918894Y-100955006D01*
X103857806Y-101182989D01*
X103827001Y-101416979D01*
X103827000Y-101416995D01*
X100200500Y-101416995D01*
X100200500Y-95355013D01*
X103827500Y-95355013D01*
X103827500Y-96205000D01*
X105027499Y-96205000D01*
X105002479Y-96265402D01*
X104977500Y-96390981D01*
X104977500Y-96519019D01*
X105002479Y-96644598D01*
X105027499Y-96705000D01*
X103827501Y-96705000D01*
X103827501Y-97554986D01*
X103837994Y-97657697D01*
X103893141Y-97824119D01*
X103893143Y-97824124D01*
X103985184Y-97973345D01*
X104109154Y-98097315D01*
X104258375Y-98189356D01*
X104258380Y-98189358D01*
X104424802Y-98244505D01*
X104424809Y-98244506D01*
X104527519Y-98254999D01*
X105377499Y-98254999D01*
X105377500Y-98254998D01*
X105377500Y-97055001D01*
X105437902Y-97080021D01*
X105563481Y-97105000D01*
X105691519Y-97105000D01*
X105817098Y-97080021D01*
X105877500Y-97055001D01*
X105877500Y-98254999D01*
X106727472Y-98254999D01*
X106727486Y-98254998D01*
X106830197Y-98244505D01*
X106996619Y-98189358D01*
X106996624Y-98189356D01*
X107145845Y-98097315D01*
X107269815Y-97973345D01*
X107361856Y-97824124D01*
X107361858Y-97824119D01*
X107417005Y-97657697D01*
X107417006Y-97657690D01*
X107427499Y-97554986D01*
X107427500Y-97554973D01*
X107427500Y-96705000D01*
X106227501Y-96705000D01*
X106252521Y-96644598D01*
X106277500Y-96519019D01*
X106277500Y-96390981D01*
X106252521Y-96265402D01*
X106227501Y-96205000D01*
X107427499Y-96205000D01*
X107427499Y-95355028D01*
X107427498Y-95355013D01*
X107417005Y-95252302D01*
X107361858Y-95085880D01*
X107361856Y-95085875D01*
X107269815Y-94936654D01*
X107145845Y-94812684D01*
X106996624Y-94720643D01*
X106996619Y-94720641D01*
X106830197Y-94665494D01*
X106830190Y-94665493D01*
X106727486Y-94655000D01*
X105877500Y-94655000D01*
X105877500Y-95854998D01*
X105817098Y-95829979D01*
X105691519Y-95805000D01*
X105563481Y-95805000D01*
X105437902Y-95829979D01*
X105377500Y-95854998D01*
X105377500Y-94655000D01*
X104527528Y-94655000D01*
X104527512Y-94655001D01*
X104424802Y-94665494D01*
X104258380Y-94720641D01*
X104258375Y-94720643D01*
X104109154Y-94812684D01*
X103985184Y-94936654D01*
X103893143Y-95085875D01*
X103893141Y-95085880D01*
X103837994Y-95252302D01*
X103837993Y-95252309D01*
X103827500Y-95355013D01*
X100200500Y-95355013D01*
X100200500Y-85712135D01*
X114479500Y-85712135D01*
X114479500Y-90887870D01*
X114479501Y-90887876D01*
X114485908Y-90947483D01*
X114536202Y-91082327D01*
X114536203Y-91082328D01*
X114536204Y-91082331D01*
X114589767Y-91153881D01*
X114614184Y-91219342D01*
X114614500Y-91228190D01*
X114614500Y-95713541D01*
X114614500Y-95713543D01*
X114614499Y-95713543D01*
X114652947Y-95906829D01*
X114652950Y-95906839D01*
X114728364Y-96088907D01*
X114728371Y-96088920D01*
X114837859Y-96252780D01*
X114837860Y-96252781D01*
X114837861Y-96252782D01*
X114977218Y-96392139D01*
X114977219Y-96392139D01*
X114984286Y-96399206D01*
X114984285Y-96399206D01*
X114984289Y-96399209D01*
X123212215Y-104627137D01*
X123212219Y-104627140D01*
X123376079Y-104736628D01*
X123376088Y-104736633D01*
X123398893Y-104746079D01*
X123558165Y-104812052D01*
X123719389Y-104844121D01*
X123751457Y-104850499D01*
X123751458Y-104850500D01*
X123751459Y-104850500D01*
X123751460Y-104850500D01*
X123948541Y-104850500D01*
X127003888Y-104850500D01*
X127070927Y-104870185D01*
X127091569Y-104886819D01*
X127103922Y-104899172D01*
X127279081Y-105026433D01*
X127373697Y-105074642D01*
X127471990Y-105124726D01*
X127471993Y-105124727D01*
X127574947Y-105158178D01*
X127677903Y-105191630D01*
X127891746Y-105225500D01*
X127891747Y-105225500D01*
X128108253Y-105225500D01*
X128108254Y-105225500D01*
X128322097Y-105191630D01*
X128528009Y-105124726D01*
X128720919Y-105026433D01*
X128896078Y-104899172D01*
X128908431Y-104886819D01*
X128969754Y-104853334D01*
X128996112Y-104850500D01*
X130848543Y-104850500D01*
X130951188Y-104830082D01*
X131002512Y-104819873D01*
X131041836Y-104812051D01*
X131095165Y-104789961D01*
X131223914Y-104736632D01*
X131387782Y-104627139D01*
X131527139Y-104487782D01*
X131527139Y-104487780D01*
X131537347Y-104477573D01*
X131537348Y-104477570D01*
X132273172Y-103741746D01*
X146624500Y-103741746D01*
X146624500Y-103958254D01*
X146627310Y-103975994D01*
X146658370Y-104172098D01*
X146725272Y-104378006D01*
X146725273Y-104378009D01*
X146781206Y-104487782D01*
X146823567Y-104570919D01*
X146950828Y-104746078D01*
X147103922Y-104899172D01*
X147279081Y-105026433D01*
X147373697Y-105074642D01*
X147471990Y-105124726D01*
X147471993Y-105124727D01*
X147574947Y-105158178D01*
X147677903Y-105191630D01*
X147891746Y-105225500D01*
X147891747Y-105225500D01*
X148108253Y-105225500D01*
X148108254Y-105225500D01*
X148322097Y-105191630D01*
X148528009Y-105124726D01*
X148720919Y-105026433D01*
X148896078Y-104899172D01*
X148908431Y-104886819D01*
X148969754Y-104853334D01*
X148996112Y-104850500D01*
X157818543Y-104850500D01*
X157921188Y-104830082D01*
X157972512Y-104819873D01*
X158011836Y-104812051D01*
X158065165Y-104789961D01*
X158193914Y-104736632D01*
X158357782Y-104627139D01*
X158497139Y-104487782D01*
X158497139Y-104487780D01*
X158507347Y-104477573D01*
X158507348Y-104477570D01*
X163138850Y-99846069D01*
X163188205Y-99815823D01*
X163200484Y-99811834D01*
X163200488Y-99811831D01*
X163200992Y-99811668D01*
X163270833Y-99809670D01*
X163326996Y-99841916D01*
X164163181Y-100678101D01*
X164196666Y-100739424D01*
X164199500Y-100765782D01*
X164199500Y-111098541D01*
X164199500Y-111098543D01*
X164199499Y-111098543D01*
X164237947Y-111291829D01*
X164237950Y-111291839D01*
X164313364Y-111473907D01*
X164313371Y-111473920D01*
X164422859Y-111637780D01*
X164422860Y-111637781D01*
X164422861Y-111637782D01*
X164562218Y-111777139D01*
X164562219Y-111777139D01*
X164569286Y-111784206D01*
X164569285Y-111784206D01*
X164569289Y-111784209D01*
X168362215Y-115577137D01*
X168362219Y-115577140D01*
X168526079Y-115686628D01*
X168526085Y-115686631D01*
X168526086Y-115686632D01*
X168708165Y-115762052D01*
X168901455Y-115800500D01*
X168901458Y-115800501D01*
X168901460Y-115800501D01*
X169104655Y-115800501D01*
X169104675Y-115800500D01*
X173298542Y-115800500D01*
X173317870Y-115796655D01*
X173395188Y-115781275D01*
X173491836Y-115762051D01*
X173545165Y-115739961D01*
X173673914Y-115686632D01*
X173837782Y-115577139D01*
X173977139Y-115437782D01*
X173977140Y-115437779D01*
X173984206Y-115430714D01*
X173984208Y-115430710D01*
X181178101Y-108236819D01*
X181239424Y-108203334D01*
X181265782Y-108200500D01*
X197098542Y-108200500D01*
X197117870Y-108196655D01*
X197195188Y-108181275D01*
X197291836Y-108162051D01*
X197345165Y-108139961D01*
X197473914Y-108086632D01*
X197637782Y-107977139D01*
X197777139Y-107837782D01*
X197777139Y-107837780D01*
X197787347Y-107827573D01*
X197787348Y-107827570D01*
X198477139Y-107137782D01*
X198586632Y-106973914D01*
X198662051Y-106791835D01*
X198675130Y-106726086D01*
X198700500Y-106598541D01*
X198700500Y-106401460D01*
X198700500Y-105565782D01*
X198720185Y-105498743D01*
X198736819Y-105478101D01*
X199278101Y-104936819D01*
X199339424Y-104903334D01*
X199365782Y-104900500D01*
X199518097Y-104900500D01*
X199751368Y-104863553D01*
X199975992Y-104790568D01*
X200186433Y-104683343D01*
X200377510Y-104544517D01*
X200544517Y-104377510D01*
X200683343Y-104186433D01*
X200790568Y-103975992D01*
X200854355Y-103779676D01*
X200884602Y-103730317D01*
X202133102Y-102481819D01*
X202194425Y-102448334D01*
X202220783Y-102445500D01*
X209349857Y-102445500D01*
X209416896Y-102465185D01*
X209462651Y-102517989D01*
X209473215Y-102556898D01*
X209482501Y-102647797D01*
X209482501Y-102647799D01*
X209533211Y-102800830D01*
X209537686Y-102814334D01*
X209629788Y-102963656D01*
X209753844Y-103087712D01*
X209903166Y-103179814D01*
X210069703Y-103234999D01*
X210172491Y-103245500D01*
X212372508Y-103245499D01*
X212475297Y-103234999D01*
X212641834Y-103179814D01*
X212791156Y-103087712D01*
X212915212Y-102963656D01*
X213007314Y-102814334D01*
X213062499Y-102647797D01*
X213073000Y-102545009D01*
X213072999Y-100344992D01*
X213062499Y-100242203D01*
X213007314Y-100075666D01*
X212915212Y-99926344D01*
X212791156Y-99802288D01*
X212641834Y-99710186D01*
X212475297Y-99655001D01*
X212475295Y-99655000D01*
X212372510Y-99644500D01*
X210172498Y-99644500D01*
X210172481Y-99644501D01*
X210069703Y-99655000D01*
X210069700Y-99655001D01*
X209903168Y-99710185D01*
X209903163Y-99710187D01*
X209753842Y-99802289D01*
X209629789Y-99926342D01*
X209537687Y-100075663D01*
X209537685Y-100075668D01*
X209482501Y-100242204D01*
X209482500Y-100242205D01*
X209473214Y-100333103D01*
X209446817Y-100397795D01*
X209389636Y-100437946D01*
X209349856Y-100444500D01*
X201859675Y-100444500D01*
X201859655Y-100444499D01*
X201853541Y-100444499D01*
X201656460Y-100444499D01*
X201656457Y-100444499D01*
X201463172Y-100482946D01*
X201463164Y-100482948D01*
X201281088Y-100558366D01*
X201281079Y-100558371D01*
X201117219Y-100667859D01*
X201117215Y-100667862D01*
X199878509Y-101906568D01*
X199817186Y-101940053D01*
X199756253Y-101937003D01*
X199756114Y-101937586D01*
X199753011Y-101936841D01*
X199752505Y-101936816D01*
X199751373Y-101936448D01*
X199751368Y-101936447D01*
X199518097Y-101899500D01*
X199518092Y-101899500D01*
X199281908Y-101899500D01*
X199281903Y-101899500D01*
X199048631Y-101936446D01*
X198824003Y-102009433D01*
X198613566Y-102116657D01*
X198524536Y-102181342D01*
X198422490Y-102255483D01*
X198422488Y-102255485D01*
X198422487Y-102255485D01*
X198255485Y-102422487D01*
X198255485Y-102422488D01*
X198255483Y-102422490D01*
X198212378Y-102481819D01*
X198116657Y-102613566D01*
X198009433Y-102824003D01*
X197936446Y-103048631D01*
X197899500Y-103281902D01*
X197899500Y-103434217D01*
X197879815Y-103501256D01*
X197863181Y-103521898D01*
X197473629Y-103911450D01*
X197062221Y-104322858D01*
X197062218Y-104322861D01*
X197007569Y-104377510D01*
X196922859Y-104462219D01*
X196813371Y-104626080D01*
X196813366Y-104626089D01*
X196787137Y-104689414D01*
X196737949Y-104808163D01*
X196737947Y-104808171D01*
X196725674Y-104869873D01*
X196725674Y-104869874D01*
X196699500Y-105001457D01*
X196699500Y-106034216D01*
X196679815Y-106101255D01*
X196663182Y-106121896D01*
X196621899Y-106163180D01*
X196560577Y-106196666D01*
X196534217Y-106199500D01*
X180701458Y-106199500D01*
X180679681Y-106203832D01*
X180657903Y-106208164D01*
X180657902Y-106208164D01*
X180508167Y-106237947D01*
X180508159Y-106237950D01*
X180454834Y-106260037D01*
X180454834Y-106260038D01*
X180409315Y-106278892D01*
X180326089Y-106313366D01*
X180326079Y-106313371D01*
X180162219Y-106422859D01*
X180092540Y-106492538D01*
X180022861Y-106562218D01*
X180022858Y-106562221D01*
X172821899Y-113763181D01*
X172760576Y-113796666D01*
X172734218Y-113799500D01*
X169465783Y-113799500D01*
X169398744Y-113779815D01*
X169378102Y-113763181D01*
X168355720Y-112740799D01*
X168322235Y-112679476D01*
X168327219Y-112609784D01*
X168369091Y-112553851D01*
X168434555Y-112529434D01*
X168475488Y-112533342D01*
X168617537Y-112571404D01*
X168838543Y-112600500D01*
X168838550Y-112600500D01*
X169061450Y-112600500D01*
X169061457Y-112600500D01*
X169282463Y-112571404D01*
X169497781Y-112513710D01*
X169703726Y-112428405D01*
X169896774Y-112316948D01*
X170073624Y-112181247D01*
X170231247Y-112023624D01*
X170366948Y-111846774D01*
X170478405Y-111653726D01*
X170563710Y-111447781D01*
X170621404Y-111232463D01*
X170650500Y-111011457D01*
X170650500Y-110788543D01*
X170621404Y-110567537D01*
X170563710Y-110352219D01*
X170478405Y-110146274D01*
X170366948Y-109953226D01*
X170231247Y-109776376D01*
X170231242Y-109776370D01*
X170073629Y-109618757D01*
X170073622Y-109618751D01*
X169896782Y-109483058D01*
X169896780Y-109483057D01*
X169896774Y-109483052D01*
X169892851Y-109480787D01*
X169862498Y-109463262D01*
X169814283Y-109412694D01*
X169800500Y-109355876D01*
X169800500Y-105401858D01*
X169820185Y-105334819D01*
X169862498Y-105294472D01*
X169996774Y-105216948D01*
X170173624Y-105081247D01*
X170331247Y-104923624D01*
X170466948Y-104746774D01*
X170578405Y-104553726D01*
X170663710Y-104347781D01*
X170721404Y-104132463D01*
X170750500Y-103911457D01*
X170750500Y-103688543D01*
X170721404Y-103467537D01*
X170663710Y-103252219D01*
X170660926Y-103245499D01*
X170595568Y-103087710D01*
X170578405Y-103046274D01*
X170466948Y-102853226D01*
X170331247Y-102676376D01*
X170331242Y-102676370D01*
X170173629Y-102518757D01*
X170173622Y-102518751D01*
X169996782Y-102383058D01*
X169996780Y-102383057D01*
X169996774Y-102383052D01*
X169862498Y-102305527D01*
X169814284Y-102254961D01*
X169800500Y-102198141D01*
X169800500Y-102029023D01*
X169771659Y-101884036D01*
X169771658Y-101884035D01*
X169771658Y-101884031D01*
X169748791Y-101828824D01*
X169715087Y-101747455D01*
X169715080Y-101747442D01*
X169632952Y-101624529D01*
X169632951Y-101624528D01*
X169528416Y-101519993D01*
X168406218Y-100397795D01*
X164947438Y-96939013D01*
X164947431Y-96939007D01*
X164850746Y-96874405D01*
X164850745Y-96874405D01*
X164824517Y-96856880D01*
X164824505Y-96856873D01*
X164687934Y-96800304D01*
X164687924Y-96800301D01*
X164542937Y-96771461D01*
X164542935Y-96771461D01*
X163986838Y-96771461D01*
X163919799Y-96751776D01*
X163874044Y-96698972D01*
X163864100Y-96629814D01*
X163864365Y-96628063D01*
X163878539Y-96538571D01*
X163878539Y-95965350D01*
X163851441Y-95794260D01*
X163797912Y-95629516D01*
X163797910Y-95629513D01*
X163797910Y-95629511D01*
X163792055Y-95618020D01*
X163778539Y-95561724D01*
X163778539Y-91324500D01*
X163798224Y-91257461D01*
X163851028Y-91211706D01*
X163902539Y-91200500D01*
X164011450Y-91200500D01*
X164011457Y-91200500D01*
X164232463Y-91171404D01*
X164447781Y-91113710D01*
X164653726Y-91028405D01*
X164846774Y-90916948D01*
X165023624Y-90781247D01*
X165181247Y-90623624D01*
X165316948Y-90446774D01*
X165428405Y-90253726D01*
X165513710Y-90047781D01*
X165571404Y-89832463D01*
X165600500Y-89611457D01*
X165600500Y-89388543D01*
X165571404Y-89167537D01*
X165513710Y-88952219D01*
X165428405Y-88746274D01*
X165316948Y-88553226D01*
X165181247Y-88376376D01*
X165181242Y-88376370D01*
X165023629Y-88218757D01*
X165023622Y-88218751D01*
X164846782Y-88083058D01*
X164846780Y-88083057D01*
X164846774Y-88083052D01*
X164653726Y-87971595D01*
X164653722Y-87971593D01*
X164447790Y-87886293D01*
X164447783Y-87886291D01*
X164447781Y-87886290D01*
X164232463Y-87828596D01*
X164232457Y-87828595D01*
X164232452Y-87828594D01*
X164011466Y-87799501D01*
X164011463Y-87799500D01*
X164011457Y-87799500D01*
X163788543Y-87799500D01*
X163788537Y-87799500D01*
X163788533Y-87799501D01*
X163567547Y-87828594D01*
X163567540Y-87828595D01*
X163567537Y-87828596D01*
X163352219Y-87886290D01*
X163352209Y-87886293D01*
X163146277Y-87971593D01*
X163146273Y-87971595D01*
X162953226Y-88083052D01*
X162953217Y-88083058D01*
X162776377Y-88218751D01*
X162776370Y-88218757D01*
X162618757Y-88376370D01*
X162618751Y-88376377D01*
X162483058Y-88553217D01*
X162483052Y-88553226D01*
X162371595Y-88746273D01*
X162371593Y-88746277D01*
X162286293Y-88952209D01*
X162286290Y-88952219D01*
X162228597Y-89167534D01*
X162228594Y-89167547D01*
X162199501Y-89388533D01*
X162199500Y-89388549D01*
X162199500Y-89611459D01*
X162211774Y-89704696D01*
X162201008Y-89773731D01*
X162176517Y-89808560D01*
X162140262Y-89844815D01*
X162140259Y-89844820D01*
X162140257Y-89844822D01*
X162070577Y-89914501D01*
X162000898Y-89984180D01*
X161891410Y-90148040D01*
X161891403Y-90148053D01*
X161815989Y-90330121D01*
X161815986Y-90330131D01*
X161777539Y-90523417D01*
X161777539Y-95561724D01*
X161764023Y-95618020D01*
X161758167Y-95629511D01*
X161704636Y-95794263D01*
X161677539Y-95965350D01*
X161677539Y-96297461D01*
X161657854Y-96364500D01*
X161605050Y-96410255D01*
X161553539Y-96421461D01*
X161421428Y-96421461D01*
X161381767Y-96427742D01*
X161250341Y-96448558D01*
X161085589Y-96502089D01*
X161074098Y-96507945D01*
X161017802Y-96521461D01*
X160937744Y-96521461D01*
X160870705Y-96501776D01*
X160850063Y-96485142D01*
X156873482Y-92508561D01*
X156839997Y-92447238D01*
X156838224Y-92404699D01*
X156850500Y-92311457D01*
X156850500Y-92088543D01*
X156821404Y-91867537D01*
X156763710Y-91652219D01*
X156678405Y-91446274D01*
X156566948Y-91253226D01*
X156459894Y-91113710D01*
X156431248Y-91076377D01*
X156431242Y-91076370D01*
X156273629Y-90918757D01*
X156273622Y-90918751D01*
X156096782Y-90783058D01*
X156096780Y-90783057D01*
X156096774Y-90783052D01*
X155903726Y-90671595D01*
X155903722Y-90671593D01*
X155697790Y-90586293D01*
X155697783Y-90586291D01*
X155697781Y-90586290D01*
X155482463Y-90528596D01*
X155482457Y-90528595D01*
X155482452Y-90528594D01*
X155261466Y-90499501D01*
X155261463Y-90499500D01*
X155261457Y-90499500D01*
X155038543Y-90499500D01*
X155038537Y-90499500D01*
X155038533Y-90499501D01*
X154817547Y-90528594D01*
X154817540Y-90528595D01*
X154817537Y-90528596D01*
X154602219Y-90586290D01*
X154602209Y-90586293D01*
X154396277Y-90671593D01*
X154396273Y-90671595D01*
X154203226Y-90783052D01*
X154203217Y-90783058D01*
X154026377Y-90918751D01*
X154026370Y-90918757D01*
X153868757Y-91076370D01*
X153868751Y-91076377D01*
X153733058Y-91253217D01*
X153733052Y-91253226D01*
X153621595Y-91446273D01*
X153621593Y-91446277D01*
X153536293Y-91652209D01*
X153536290Y-91652219D01*
X153488228Y-91831592D01*
X153478597Y-91867534D01*
X153478594Y-91867547D01*
X153449501Y-92088533D01*
X153449500Y-92088549D01*
X153449500Y-92311450D01*
X153449501Y-92311466D01*
X153478594Y-92532452D01*
X153478595Y-92532457D01*
X153478596Y-92532463D01*
X153536290Y-92747780D01*
X153536293Y-92747790D01*
X153621593Y-92953722D01*
X153621595Y-92953726D01*
X153733052Y-93146774D01*
X153733057Y-93146780D01*
X153733058Y-93146782D01*
X153868751Y-93323622D01*
X153868757Y-93323629D01*
X154026370Y-93481242D01*
X154026376Y-93481247D01*
X154203226Y-93616948D01*
X154396274Y-93728405D01*
X154516550Y-93778225D01*
X154601074Y-93813236D01*
X154602219Y-93813710D01*
X154817537Y-93871404D01*
X155038543Y-93900500D01*
X155038550Y-93900500D01*
X155261450Y-93900500D01*
X155261457Y-93900500D01*
X155354696Y-93888224D01*
X155423729Y-93898989D01*
X155458561Y-93923482D01*
X159694821Y-98159742D01*
X159694822Y-98159743D01*
X159834179Y-98299100D01*
X159998047Y-98408593D01*
X160104706Y-98452772D01*
X160180125Y-98484012D01*
X160373415Y-98522460D01*
X160373418Y-98522461D01*
X160373420Y-98522461D01*
X161017802Y-98522461D01*
X161074098Y-98535977D01*
X161085589Y-98541832D01*
X161085591Y-98541832D01*
X161085594Y-98541834D01*
X161250338Y-98595363D01*
X161277049Y-98599593D01*
X161340181Y-98629521D01*
X161377113Y-98688831D01*
X161376117Y-98758694D01*
X161345331Y-98809747D01*
X157341899Y-102813181D01*
X157280576Y-102846666D01*
X157254218Y-102849500D01*
X148996112Y-102849500D01*
X148929073Y-102829815D01*
X148908431Y-102813181D01*
X148896080Y-102800830D01*
X148896078Y-102800828D01*
X148720919Y-102673567D01*
X148528009Y-102575273D01*
X148528006Y-102575272D01*
X148322098Y-102508370D01*
X148215175Y-102491435D01*
X148108254Y-102474500D01*
X147891746Y-102474500D01*
X147820465Y-102485790D01*
X147677901Y-102508370D01*
X147471993Y-102575272D01*
X147471990Y-102575273D01*
X147279080Y-102673567D01*
X147208707Y-102724697D01*
X147103922Y-102800828D01*
X147103920Y-102800830D01*
X147103919Y-102800830D01*
X146950830Y-102953919D01*
X146950830Y-102953920D01*
X146950828Y-102953922D01*
X146896174Y-103029145D01*
X146823567Y-103129080D01*
X146725273Y-103321990D01*
X146725272Y-103321993D01*
X146658370Y-103527901D01*
X146658370Y-103527903D01*
X146624500Y-103741746D01*
X132273172Y-103741746D01*
X137963102Y-98051819D01*
X138024425Y-98018334D01*
X138050783Y-98015500D01*
X142783543Y-98015500D01*
X142811729Y-98009892D01*
X142882201Y-97995875D01*
X142976836Y-97977051D01*
X143035993Y-97952547D01*
X143158914Y-97901632D01*
X143322782Y-97792139D01*
X143462139Y-97652782D01*
X143462139Y-97652780D01*
X143472347Y-97642573D01*
X143472348Y-97642570D01*
X156378102Y-84736819D01*
X156439425Y-84703334D01*
X156465783Y-84700500D01*
X173134218Y-84700500D01*
X173201257Y-84720185D01*
X173221899Y-84736819D01*
X180713181Y-92228101D01*
X180746666Y-92289424D01*
X180749500Y-92315782D01*
X180749500Y-102363126D01*
X180729815Y-102430165D01*
X180700987Y-102461502D01*
X180626370Y-102518757D01*
X180468757Y-102676370D01*
X180468751Y-102676377D01*
X180333058Y-102853217D01*
X180333052Y-102853226D01*
X180221595Y-103046273D01*
X180221593Y-103046277D01*
X180136293Y-103252209D01*
X180136290Y-103252219D01*
X180078597Y-103467534D01*
X180078594Y-103467547D01*
X180049501Y-103688533D01*
X180049500Y-103688549D01*
X180049500Y-103911450D01*
X180049501Y-103911466D01*
X180078594Y-104132452D01*
X180078595Y-104132457D01*
X180078596Y-104132463D01*
X180129612Y-104322858D01*
X180136290Y-104347780D01*
X180136293Y-104347790D01*
X180221593Y-104553722D01*
X180221595Y-104553726D01*
X180333052Y-104746774D01*
X180333057Y-104746780D01*
X180333058Y-104746782D01*
X180468751Y-104923622D01*
X180468757Y-104923629D01*
X180626370Y-105081242D01*
X180626377Y-105081248D01*
X180733155Y-105163181D01*
X180803226Y-105216948D01*
X180996274Y-105328405D01*
X181126140Y-105382197D01*
X181173605Y-105401858D01*
X181202219Y-105413710D01*
X181417537Y-105471404D01*
X181638543Y-105500500D01*
X181638550Y-105500500D01*
X181861450Y-105500500D01*
X181861457Y-105500500D01*
X182082463Y-105471404D01*
X182297781Y-105413710D01*
X182503726Y-105328405D01*
X182696774Y-105216948D01*
X182873624Y-105081247D01*
X183031247Y-104923624D01*
X183166948Y-104746774D01*
X183278405Y-104553726D01*
X183363710Y-104347781D01*
X183391945Y-104242406D01*
X183428310Y-104182746D01*
X183491158Y-104152217D01*
X183511720Y-104150500D01*
X190282465Y-104150500D01*
X190349504Y-104170185D01*
X190395259Y-104222989D01*
X190405823Y-104261898D01*
X190410001Y-104302797D01*
X190410001Y-104302799D01*
X190462828Y-104462218D01*
X190465186Y-104469334D01*
X190557288Y-104618656D01*
X190681344Y-104742712D01*
X190830666Y-104834814D01*
X190997203Y-104889999D01*
X191099991Y-104900500D01*
X192700008Y-104900499D01*
X192802797Y-104889999D01*
X192969334Y-104834814D01*
X193118656Y-104742712D01*
X193242712Y-104618656D01*
X193334814Y-104469334D01*
X193389999Y-104302797D01*
X193400500Y-104200009D01*
X193400499Y-102599992D01*
X193389999Y-102497203D01*
X193334814Y-102330666D01*
X193242712Y-102181344D01*
X193118656Y-102057288D01*
X192969334Y-101965186D01*
X192802797Y-101910001D01*
X192802795Y-101910000D01*
X192700010Y-101899500D01*
X191099998Y-101899500D01*
X191099981Y-101899501D01*
X190997203Y-101910000D01*
X190997200Y-101910001D01*
X190830668Y-101965185D01*
X190830663Y-101965187D01*
X190681342Y-102057289D01*
X190557289Y-102181342D01*
X190465187Y-102330663D01*
X190465185Y-102330668D01*
X190464396Y-102333049D01*
X190434759Y-102422490D01*
X190410001Y-102497204D01*
X190410000Y-102497205D01*
X190407799Y-102518753D01*
X190405890Y-102537450D01*
X190405823Y-102538102D01*
X190379427Y-102602793D01*
X190322247Y-102642945D01*
X190282465Y-102649500D01*
X183055733Y-102649500D01*
X182988694Y-102629815D01*
X182968056Y-102613185D01*
X182873624Y-102518753D01*
X182845539Y-102497203D01*
X182799013Y-102461502D01*
X182757811Y-102405074D01*
X182750500Y-102363126D01*
X182750500Y-91954675D01*
X182750501Y-91954654D01*
X182750501Y-91751457D01*
X182750500Y-91751455D01*
X182712052Y-91558165D01*
X182636632Y-91376086D01*
X182636631Y-91376085D01*
X182636628Y-91376079D01*
X182527140Y-91212219D01*
X182527137Y-91212215D01*
X180787087Y-89472165D01*
X180703465Y-89388543D01*
X187599500Y-89388543D01*
X187599500Y-89611457D01*
X187599500Y-89611463D01*
X187599501Y-89611466D01*
X187628594Y-89832452D01*
X187628595Y-89832457D01*
X187628596Y-89832463D01*
X187686290Y-90047780D01*
X187686293Y-90047790D01*
X187771593Y-90253722D01*
X187771595Y-90253726D01*
X187883052Y-90446774D01*
X187883057Y-90446780D01*
X187883058Y-90446782D01*
X188018751Y-90623622D01*
X188018757Y-90623629D01*
X188176370Y-90781242D01*
X188176377Y-90781248D01*
X188245180Y-90834042D01*
X188353226Y-90916948D01*
X188546274Y-91028405D01*
X188752219Y-91113710D01*
X188967537Y-91171404D01*
X189188543Y-91200500D01*
X189188550Y-91200500D01*
X189411450Y-91200500D01*
X189411457Y-91200500D01*
X189632463Y-91171404D01*
X189847781Y-91113710D01*
X190053726Y-91028405D01*
X190246774Y-90916948D01*
X190423624Y-90781247D01*
X190581247Y-90623624D01*
X190716948Y-90446774D01*
X190794472Y-90312498D01*
X190845039Y-90264284D01*
X190901859Y-90250500D01*
X204045270Y-90250500D01*
X204112309Y-90270185D01*
X204132951Y-90286819D01*
X209527481Y-95681349D01*
X209560966Y-95742672D01*
X209559575Y-95801123D01*
X209502806Y-96012987D01*
X209472001Y-96246979D01*
X209472000Y-96246995D01*
X209472000Y-96483004D01*
X209472001Y-96483020D01*
X209500431Y-96698972D01*
X209502807Y-96717014D01*
X209517396Y-96771461D01*
X209563894Y-96944993D01*
X209654214Y-97163045D01*
X209654219Y-97163056D01*
X209725177Y-97285957D01*
X209772227Y-97367450D01*
X209772229Y-97367453D01*
X209772230Y-97367454D01*
X209915906Y-97554697D01*
X209915912Y-97554704D01*
X210082795Y-97721587D01*
X210082801Y-97721592D01*
X210270050Y-97865273D01*
X210401418Y-97941118D01*
X210474443Y-97983280D01*
X210474448Y-97983282D01*
X210474451Y-97983284D01*
X210692507Y-98073606D01*
X210920486Y-98134693D01*
X211154489Y-98165500D01*
X211154496Y-98165500D01*
X211390504Y-98165500D01*
X211390511Y-98165500D01*
X211624514Y-98134693D01*
X211852493Y-98073606D01*
X212070549Y-97983284D01*
X212274950Y-97865273D01*
X212462199Y-97721592D01*
X212629092Y-97554699D01*
X212772773Y-97367450D01*
X212890784Y-97163049D01*
X212981106Y-96944993D01*
X213042193Y-96717014D01*
X213073000Y-96483011D01*
X213073000Y-96246989D01*
X213042193Y-96012986D01*
X212981106Y-95785007D01*
X212890784Y-95566951D01*
X212890782Y-95566948D01*
X212890780Y-95566943D01*
X212848618Y-95493918D01*
X212772773Y-95362550D01*
X212676357Y-95236898D01*
X212629093Y-95175302D01*
X212629087Y-95175295D01*
X212462204Y-95008412D01*
X212462197Y-95008406D01*
X212274954Y-94864730D01*
X212274953Y-94864729D01*
X212274950Y-94864727D01*
X212184809Y-94812684D01*
X212070556Y-94746719D01*
X212070545Y-94746714D01*
X211852493Y-94656394D01*
X211624510Y-94595306D01*
X211390520Y-94564501D01*
X211390517Y-94564500D01*
X211390511Y-94564500D01*
X211154489Y-94564500D01*
X211154483Y-94564500D01*
X211154479Y-94564501D01*
X210920487Y-94595306D01*
X210708623Y-94652075D01*
X210638773Y-94650412D01*
X210588849Y-94619981D01*
X204885921Y-88917052D01*
X204885914Y-88917046D01*
X204803857Y-88862218D01*
X204803857Y-88862219D01*
X204762991Y-88834913D01*
X204626417Y-88778343D01*
X204626407Y-88778340D01*
X204481420Y-88749500D01*
X204481418Y-88749500D01*
X190901859Y-88749500D01*
X190834820Y-88729815D01*
X190794472Y-88687501D01*
X190774872Y-88653553D01*
X190716948Y-88553226D01*
X190581247Y-88376376D01*
X190581242Y-88376370D01*
X190423629Y-88218757D01*
X190423622Y-88218751D01*
X190246782Y-88083058D01*
X190246780Y-88083057D01*
X190246774Y-88083052D01*
X190053726Y-87971595D01*
X190053722Y-87971593D01*
X189847790Y-87886293D01*
X189847783Y-87886291D01*
X189847781Y-87886290D01*
X189632463Y-87828596D01*
X189632457Y-87828595D01*
X189632452Y-87828594D01*
X189411466Y-87799501D01*
X189411463Y-87799500D01*
X189411457Y-87799500D01*
X189188543Y-87799500D01*
X189188537Y-87799500D01*
X189188533Y-87799501D01*
X188967547Y-87828594D01*
X188967540Y-87828595D01*
X188967537Y-87828596D01*
X188752219Y-87886290D01*
X188752209Y-87886293D01*
X188546277Y-87971593D01*
X188546273Y-87971595D01*
X188353226Y-88083052D01*
X188353217Y-88083058D01*
X188176377Y-88218751D01*
X188176370Y-88218757D01*
X188018757Y-88376370D01*
X188018751Y-88376377D01*
X187883058Y-88553217D01*
X187883052Y-88553226D01*
X187771595Y-88746273D01*
X187771593Y-88746277D01*
X187686293Y-88952209D01*
X187686290Y-88952219D01*
X187628597Y-89167534D01*
X187628594Y-89167547D01*
X187621444Y-89221860D01*
X187599500Y-89388543D01*
X180703465Y-89388543D01*
X174384209Y-83069289D01*
X174384206Y-83069285D01*
X174384206Y-83069286D01*
X174377139Y-83062219D01*
X174377139Y-83062218D01*
X174237782Y-82922861D01*
X174237781Y-82922860D01*
X174237780Y-82922859D01*
X174073920Y-82813371D01*
X174073911Y-82813366D01*
X174001315Y-82783296D01*
X173945165Y-82760038D01*
X173891836Y-82737949D01*
X173891832Y-82737948D01*
X173891828Y-82737946D01*
X173795188Y-82718724D01*
X173698544Y-82699500D01*
X173698541Y-82699500D01*
X156104675Y-82699500D01*
X156104655Y-82699499D01*
X156098541Y-82699499D01*
X155901460Y-82699499D01*
X155901457Y-82699499D01*
X155708172Y-82737946D01*
X155708164Y-82737948D01*
X155526088Y-82813366D01*
X155526079Y-82813371D01*
X155362219Y-82922859D01*
X155362215Y-82922862D01*
X142306899Y-95978181D01*
X142245576Y-96011666D01*
X142219218Y-96014500D01*
X138709500Y-96014500D01*
X138642461Y-95994815D01*
X138596706Y-95942011D01*
X138585500Y-95890500D01*
X138585500Y-92088575D01*
X140750000Y-92088575D01*
X140750000Y-92311424D01*
X140779085Y-92532354D01*
X140779088Y-92532367D01*
X140836763Y-92747618D01*
X140922045Y-92953502D01*
X140922054Y-92953520D01*
X141033464Y-93146491D01*
X141033473Y-93146504D01*
X141084040Y-93212403D01*
X141084043Y-93212403D01*
X141885387Y-92411059D01*
X141890889Y-92431591D01*
X141969881Y-92568408D01*
X142081592Y-92680119D01*
X142218409Y-92759111D01*
X142238940Y-92764612D01*
X141437595Y-93565955D01*
X141437595Y-93565956D01*
X141503507Y-93616533D01*
X141696485Y-93727949D01*
X141696497Y-93727954D01*
X141902381Y-93813236D01*
X142117632Y-93870911D01*
X142117645Y-93870914D01*
X142338575Y-93900000D01*
X142561425Y-93900000D01*
X142782354Y-93870914D01*
X142782367Y-93870911D01*
X142997618Y-93813236D01*
X143203502Y-93727954D01*
X143203514Y-93727949D01*
X143396498Y-93616530D01*
X143462403Y-93565957D01*
X143462404Y-93565956D01*
X142661059Y-92764612D01*
X142681591Y-92759111D01*
X142818408Y-92680119D01*
X142930119Y-92568408D01*
X143009111Y-92431591D01*
X143014612Y-92411059D01*
X143815956Y-93212404D01*
X143815957Y-93212403D01*
X143866530Y-93146498D01*
X143977949Y-92953514D01*
X143977954Y-92953502D01*
X144063236Y-92747618D01*
X144120911Y-92532367D01*
X144120914Y-92532354D01*
X144150000Y-92311424D01*
X144150000Y-92088575D01*
X144120914Y-91867645D01*
X144120911Y-91867632D01*
X144063236Y-91652381D01*
X143977954Y-91446497D01*
X143977949Y-91446485D01*
X143866533Y-91253507D01*
X143815956Y-91187595D01*
X143815955Y-91187595D01*
X143014612Y-91988939D01*
X143009111Y-91968409D01*
X142930119Y-91831592D01*
X142818408Y-91719881D01*
X142681591Y-91640889D01*
X142661058Y-91635387D01*
X143462403Y-90834043D01*
X143462403Y-90834040D01*
X143396504Y-90783473D01*
X143396491Y-90783464D01*
X143203520Y-90672054D01*
X143203502Y-90672045D01*
X142997618Y-90586763D01*
X142782367Y-90529088D01*
X142782354Y-90529085D01*
X142561425Y-90500000D01*
X142338575Y-90500000D01*
X142117645Y-90529085D01*
X142117632Y-90529088D01*
X141902381Y-90586763D01*
X141696497Y-90672045D01*
X141696479Y-90672054D01*
X141503511Y-90783462D01*
X141437595Y-90834042D01*
X142238941Y-91635387D01*
X142218409Y-91640889D01*
X142081592Y-91719881D01*
X141969881Y-91831592D01*
X141890889Y-91968409D01*
X141885387Y-91988940D01*
X141084042Y-91187595D01*
X141033462Y-91253511D01*
X140922054Y-91446479D01*
X140922045Y-91446497D01*
X140836763Y-91652381D01*
X140779088Y-91867632D01*
X140779085Y-91867645D01*
X140750000Y-92088575D01*
X138585500Y-92088575D01*
X138585500Y-91228190D01*
X138605185Y-91161151D01*
X138610215Y-91153904D01*
X138663796Y-91082331D01*
X138714091Y-90947483D01*
X138720500Y-90887873D01*
X138720499Y-88300000D01*
X138720499Y-85712129D01*
X138720498Y-85712123D01*
X138720497Y-85712116D01*
X138714091Y-85652517D01*
X138663796Y-85517669D01*
X138663795Y-85517668D01*
X138663793Y-85517664D01*
X138577547Y-85402455D01*
X138577544Y-85402452D01*
X138462335Y-85316206D01*
X138462328Y-85316202D01*
X138327482Y-85265908D01*
X138327483Y-85265908D01*
X138267883Y-85259501D01*
X138267881Y-85259500D01*
X138267873Y-85259500D01*
X138267864Y-85259500D01*
X136902129Y-85259500D01*
X136902123Y-85259501D01*
X136842516Y-85265908D01*
X136707671Y-85316202D01*
X136707664Y-85316206D01*
X136592455Y-85402452D01*
X136592452Y-85402455D01*
X136506206Y-85517664D01*
X136506202Y-85517671D01*
X136455908Y-85652517D01*
X136449501Y-85712116D01*
X136449501Y-85712123D01*
X136449500Y-85712135D01*
X136449500Y-90887870D01*
X136449501Y-90887876D01*
X136455908Y-90947483D01*
X136506202Y-91082327D01*
X136506203Y-91082328D01*
X136506204Y-91082331D01*
X136559767Y-91153881D01*
X136584184Y-91219342D01*
X136584500Y-91228190D01*
X136584500Y-96549217D01*
X136564815Y-96616256D01*
X136548181Y-96636898D01*
X130371899Y-102813181D01*
X130310576Y-102846666D01*
X130284218Y-102849500D01*
X128996112Y-102849500D01*
X128929073Y-102829815D01*
X128908431Y-102813181D01*
X128896080Y-102800830D01*
X128896078Y-102800828D01*
X128720919Y-102673567D01*
X128528009Y-102575273D01*
X128528006Y-102575272D01*
X128322098Y-102508370D01*
X128215175Y-102491435D01*
X128108254Y-102474500D01*
X127891746Y-102474500D01*
X127820465Y-102485790D01*
X127677901Y-102508370D01*
X127471993Y-102575272D01*
X127471990Y-102575273D01*
X127279080Y-102673567D01*
X127208707Y-102724697D01*
X127103922Y-102800828D01*
X127103920Y-102800830D01*
X127103919Y-102800830D01*
X127091569Y-102813181D01*
X127030246Y-102846666D01*
X127003888Y-102849500D01*
X124315783Y-102849500D01*
X124248744Y-102829815D01*
X124228102Y-102813181D01*
X116651819Y-95236898D01*
X116618334Y-95175575D01*
X116615500Y-95149217D01*
X116615500Y-95123580D01*
X120129972Y-95123580D01*
X120170785Y-95164393D01*
X120633514Y-95570196D01*
X121121774Y-95944851D01*
X121633486Y-96286766D01*
X121633511Y-96286782D01*
X122166496Y-96594501D01*
X122718472Y-96866705D01*
X123287067Y-97102225D01*
X123287078Y-97102229D01*
X123869852Y-97300055D01*
X123869860Y-97300057D01*
X124464345Y-97459349D01*
X124464363Y-97459353D01*
X125067952Y-97579414D01*
X125067963Y-97579416D01*
X125678139Y-97659747D01*
X126292287Y-97700000D01*
X126907713Y-97700000D01*
X127521860Y-97659747D01*
X128132036Y-97579416D01*
X128132047Y-97579414D01*
X128735636Y-97459353D01*
X128735654Y-97459349D01*
X129330139Y-97300057D01*
X129330147Y-97300055D01*
X129912921Y-97102229D01*
X129912932Y-97102225D01*
X130481527Y-96866705D01*
X131033503Y-96594501D01*
X131566488Y-96286782D01*
X131566513Y-96286766D01*
X132078225Y-95944851D01*
X132566485Y-95570196D01*
X133029207Y-95164400D01*
X133070027Y-95123579D01*
X126600000Y-88653553D01*
X120129972Y-95123580D01*
X116615500Y-95123580D01*
X116615500Y-91228190D01*
X116635185Y-91161151D01*
X116640215Y-91153904D01*
X116693796Y-91082331D01*
X116744091Y-90947483D01*
X116750500Y-90887873D01*
X116750499Y-87992287D01*
X117200000Y-87992287D01*
X117200000Y-88607712D01*
X117240252Y-89221860D01*
X117320583Y-89832036D01*
X117320585Y-89832047D01*
X117440646Y-90435636D01*
X117440650Y-90435654D01*
X117599942Y-91030139D01*
X117599944Y-91030147D01*
X117797770Y-91612921D01*
X117797774Y-91612932D01*
X118033294Y-92181527D01*
X118305498Y-92733503D01*
X118613217Y-93266488D01*
X118613233Y-93266513D01*
X118955148Y-93778225D01*
X119329803Y-94266485D01*
X119735606Y-94729214D01*
X119776419Y-94770027D01*
X126246446Y-88300000D01*
X126246446Y-88299999D01*
X126953553Y-88299999D01*
X126953553Y-88300000D01*
X133423579Y-94770027D01*
X133423580Y-94770027D01*
X133464400Y-94729207D01*
X133870196Y-94266485D01*
X134244851Y-93778225D01*
X134586766Y-93266513D01*
X134586782Y-93266488D01*
X134894501Y-92733503D01*
X135166705Y-92181527D01*
X135402225Y-91612932D01*
X135402229Y-91612921D01*
X135600055Y-91030147D01*
X135600057Y-91030139D01*
X135759349Y-90435654D01*
X135759353Y-90435636D01*
X135879414Y-89832047D01*
X135879416Y-89832036D01*
X135959747Y-89221860D01*
X136000000Y-88607712D01*
X136000000Y-87992287D01*
X135959747Y-87378139D01*
X135879416Y-86767963D01*
X135879414Y-86767952D01*
X135759353Y-86164363D01*
X135759349Y-86164345D01*
X135600057Y-85569860D01*
X135600055Y-85569852D01*
X135402229Y-84987078D01*
X135402225Y-84987067D01*
X135166705Y-84418472D01*
X134894501Y-83866496D01*
X134586782Y-83333511D01*
X134586766Y-83333486D01*
X134244851Y-82821774D01*
X133870196Y-82333514D01*
X133464393Y-81870785D01*
X133423580Y-81829972D01*
X126953553Y-88299999D01*
X126246446Y-88299999D01*
X119776419Y-81829972D01*
X119776418Y-81829972D01*
X119735628Y-81870762D01*
X119735601Y-81870791D01*
X119329803Y-82333514D01*
X118955148Y-82821774D01*
X118613233Y-83333486D01*
X118613217Y-83333511D01*
X118305498Y-83866496D01*
X118033294Y-84418472D01*
X117797774Y-84987067D01*
X117797770Y-84987078D01*
X117599944Y-85569852D01*
X117599942Y-85569860D01*
X117440650Y-86164345D01*
X117440646Y-86164363D01*
X117320585Y-86767952D01*
X117320583Y-86767963D01*
X117240252Y-87378139D01*
X117200000Y-87992287D01*
X116750499Y-87992287D01*
X116750499Y-85712128D01*
X116744091Y-85652517D01*
X116693796Y-85517669D01*
X116693795Y-85517668D01*
X116693793Y-85517664D01*
X116607547Y-85402455D01*
X116607544Y-85402452D01*
X116492335Y-85316206D01*
X116492328Y-85316202D01*
X116357482Y-85265908D01*
X116357483Y-85265908D01*
X116297883Y-85259501D01*
X116297881Y-85259500D01*
X116297873Y-85259500D01*
X116297864Y-85259500D01*
X114932129Y-85259500D01*
X114932123Y-85259501D01*
X114872516Y-85265908D01*
X114737671Y-85316202D01*
X114737664Y-85316206D01*
X114622455Y-85402452D01*
X114622452Y-85402455D01*
X114536206Y-85517664D01*
X114536202Y-85517671D01*
X114485908Y-85652517D01*
X114479501Y-85712116D01*
X114479501Y-85712123D01*
X114479500Y-85712135D01*
X100200500Y-85712135D01*
X100200500Y-81476417D01*
X120129972Y-81476417D01*
X120129972Y-81476418D01*
X126599999Y-87946446D01*
X133070027Y-81476419D01*
X133029214Y-81435606D01*
X132566485Y-81029803D01*
X132078225Y-80655148D01*
X131566513Y-80313233D01*
X131566488Y-80313217D01*
X131033503Y-80005498D01*
X130481527Y-79733294D01*
X129912932Y-79497774D01*
X129912921Y-79497770D01*
X129330147Y-79299944D01*
X129330139Y-79299942D01*
X128735654Y-79140650D01*
X128735636Y-79140646D01*
X128132047Y-79020585D01*
X128132036Y-79020583D01*
X127521860Y-78940252D01*
X126907713Y-78900000D01*
X126292287Y-78900000D01*
X125678139Y-78940252D01*
X125067963Y-79020583D01*
X125067952Y-79020585D01*
X124464363Y-79140646D01*
X124464345Y-79140650D01*
X123869860Y-79299942D01*
X123869852Y-79299944D01*
X123287078Y-79497770D01*
X123287067Y-79497774D01*
X122718472Y-79733294D01*
X122166496Y-80005498D01*
X121633511Y-80313217D01*
X121633486Y-80313233D01*
X121121774Y-80655148D01*
X120633514Y-81029803D01*
X120170791Y-81435601D01*
X120170762Y-81435628D01*
X120129972Y-81476417D01*
X100200500Y-81476417D01*
X100200500Y-75424500D01*
X100220185Y-75357461D01*
X100272989Y-75311706D01*
X100324500Y-75300500D01*
X216675500Y-75300500D01*
X216742539Y-75320185D01*
G37*
%TD.AperFunction*%
%TD*%
M02*
